<svg version="1.2" xmlns="http://www.w3.org/2000/svg" viewBox="0 0 1000 1000" width="1000" height="1000">
	<title>7060801-ai</title>
	<defs>
		<clipPath clipPathUnits="userSpaceOnUse" id="cp1">
			<path d="m86 239.06h828v424h-828z"/>
		</clipPath>
		<clipPath clipPathUnits="userSpaceOnUse" id="cp2">
			<path d="m446.94 404.44c-13.9-16.06-15.82-31.5-14.42-52.7 5.2-78.96 107.96-73.12 108.26-73.1 93.34 6.22 94.44 121.42 42.7 152.56-12.86 7.74-18.74 1.96-33.74 1.76-15.42-0.22-30.98-0.84-45.98-4.4-15-3.6-40.82-5.66-56.82-24.12z"/>
		</clipPath>
		<clipPath clipPathUnits="userSpaceOnUse" id="cp3">
			<path d="m498.24 290.7c-3.46-9.12-5.36-19.02-4.04-28.68 1.32-9.66 6.1-19.08 14.04-24.76 7.4-5.3 16.74-6.96 25.8-7.74 7.72-0.66 15.66-0.74 22.96 1.84 9.46 3.34 17.1 11.08 21.04 20.3 3.94 9.22 4.34 19.78 1.86 29.5-1.06 4.18-2.72 8.34-5.72 11.44-4 4.12-9.86 5.78-15.48 6.94-13.96 2.9-28.32 3.84-42.52 2.74-3.78-0.3-7.6-0.74-11.04-2.32-3.44-1.58-5.2-4.76-6.9-9.26z"/>
		</clipPath>
		<clipPath clipPathUnits="userSpaceOnUse" id="cp4">
			<path d="m499.88 310.92c16.8 35.44 48.02 61.08 83.84 70.62 1.04 10.5 4.58 20.28 9.76 29.1-6.8 25.38-15.12 53.9-37.3 69.72-15.4 10.98-35.6 13.92-54.2 10.56-12.1-2.18-23.9-6.98-33.1-15.12-14.76-13.04-21.36-33.38-21.9-53.06-0.54-19.68 4.26-39.06 9.04-58.16 21.94-8.72 39.04-29.78 43.86-53.66z"/>
		</clipPath>
		<clipPath clipPathUnits="userSpaceOnUse" id="cp5">
			<path d="m701.04 845.36c5.68 1.62 11.7 3.96 14.78 9.02 2.54 4.18 2.56 9.38 2.48 14.26q-0.29 19.67-0.56 39.34-0.5 35.9-1 71.78c-41.62 12.4-85.5 9.64-123.98-6.38 4.98-27.18 9.92-53.14 14.84-79.12 2.26-11.96-14.36-20.6-5.74-29.22 10.94-10.92 33.36-24.7 45.54-24.98 17.42-0.4 36.04 0.3 53.64 5.3z"/>
		</clipPath>
		<clipPath clipPathUnits="userSpaceOnUse" id="cp6">
			<path d="m603.42 761.12c5.66 5.14 7.76 13.04 9.58 20.46q2.98 12.12 5.96 24.24c1.62 6.62 3.26 13.4 2.56 20.2-1.12 10.6-8.1 20.12-17.3 25.52-6.78 3.98-14.62 5.92-21.36 10-6.74 4.06-12.54 11.44-11.12 19.18-5.88-5.06-9.56-12.6-9.92-20.34-0.24 2.78-0.12 4.94 0 7.12-6.78-7.4-8.74-18.62-5.64-28.36 3.1-9.74 11.2-17.74 20.98-20.74 5.56-1.7 12.32-2.38 15.3-7.36 2.66-4.44 0.92-10.06-0.66-14.96-4.2-13-11.9-32.98-13.04-46.6 0.74-0.74 6.5 5.04 7.24 4.32 9.08 2.18 13.78 3.98 17.42 7.32z"/>
		</clipPath>
		<clipPath clipPathUnits="userSpaceOnUse" id="cp7">
			<path d="m762.2 757.28c-2.12 4.2-9.3 12.62-13.64 10.84-1.52-4.32-4.48-7.16-9.14-8.38 0.2 0.22 0.4 0.4 0.6 0.62q-0.87-0.5-1.7-0.88c-0.64-0.12-1.28-0.24-1.98-0.3-4.34-0.42-8.14-1.24-11.5-2.28q-1.68 0.17-3.5 0.64c-2.9 0.76-5.52 1.78-7.56 4.28 1.44-2.98 4.16-5.04 7.24-6.28-9.96-4-15.68-10.02-21.04-13.34-9.22-5.72-19.9-5.18-30.64-3.64-13.86 1.96-23.1-3.26-30.7-15.02-1.48 14.32-3.14 27.6-6.14 40.54-1.36 5.84-3.04 11.72-6.24 16.8-3.22 5.08-15.62 11.98-16.08 10.44-5.22-17.28-24.34-12.72-28.88-27.72-4.54-15-7.36-29.66-0.78-43.88 4.24-9.18 12.16-18.1 22.28-18.06 6.74-16.94 20.74-34.22 39.34-43.56 18.6-9.34 41.84-10.04 60 0.12 7.26 4.06 13.56 9.66 20.62 14.06 8.28 5.14 17.54 8.6 25.6 14.1 8.06 5.5 15.06 13.86 15.38 23.6 0.22 6.6-2.66 13-2.72 19.6-0.04 4.7 1.36 9.26 2.2 13.88 0.84 4.62 1.1 9.62-1.02 13.82z"/>
		</clipPath>
		<clipPath clipPathUnits="userSpaceOnUse" id="cp8">
			<path d="m236.74 772.12c-5.52-4.36-8.1-12.06-7.94-19.72 0.16-7.66 3.08-15.24 8.1-21.04-7.96-4.34-10.46-14.32-7.44-22.84 3.02-8.52 11.86-14.86 20.86-14.14-1.16-9.1 4.28-19.46 13.08-24.52 8.8-5.04 20.5-4.52 28.8 1.3 4.9-8.54 11.94-13.66 19.68-14.82 7.74-1.16 15.98 1.64 21.4 7.3 4.02 4.18 7.58 10.32 13.38 10.1 3.06-0.12 5.68-2.12 8.44-3.5 5.72-2.86 12.7-3.04 18.56-0.5 5.86 2.54 10.48 7.78 12.3 13.9 4.72 1.88 9.82 6.6 12.32 11.88 2.5 5.26 3.18 11.2 5.14 16.7 2.26 6.36 6.14 11.98 8.88 18.14 5.66 12.74 6.08 27.5 2.46 40.96-3.62 13.48-11.1 25.72-20.42 36.08-8.56-2.88-17.12-2.68-23.72 6.46-9.98 13.8-14.14 12.14-15.26 11.68-1.02-0.42-1.12-1.82-1.04-2.92 0.54-7.24 1.84-14.42 3.88-21.4-7.62-11.94-9.04-27.56-4.56-41.38-4.56 2.9-10.52 3.48-15.56 1.54-5.04-1.94-9.06-6.38-10.48-11.6-13.78 5.1-30.76-0.78-38.44-13.3-12.5 7.78-28.68 8.5-39.38-1.64-3.94 14.26-9.28 24.56-13.04 37.28z"/>
		</clipPath>
	</defs>
	<style>
		.s0 { fill: #bfd7b1 } 
		.s1 { fill: #be5949 } 
		.s2 { fill: #3b3945 } 
		.s3 { fill: #33313d } 
		.s4 { fill: none;stroke: #ffffff;stroke-width: 6 } 
		.s5 { fill: #ffffff } 
		.s6 { fill: #237c74 } 
		.s7 { fill: #d63845 } 
		.s8 { fill: #fdae86 } 
		.s9 { fill: #f28361 } 
		.s10 { fill: #6f4659 } 
		.s11 { fill: #6b3e57 } 
		.s12 { fill: #f06ea2 } 
		.s13 { fill: #fe80ab } 
		.s14 { fill: #fff5f7 } 
		.s15 { fill: #38324f } 
		.s16 { fill: #732829 } 
		.s17 { fill: #914841 } 
		.s18 { fill: #faa07f } 
		.s19 { fill: #2b344a } 
		.s20 { fill: #a83139 } 
		.s21 { fill: #cc3333 } 
		.s22 { fill: #fd6b2c } 
		.s23 { fill: #f75d25 } 
		.s24 { fill: #ffefe0 } 
		.s25 { fill: #f9af88 } 
		.s26 { fill: #ed8464 } 
		.s27 { fill: #e0564f } 
		.s28 { fill: #ff7e33 } 
		.s29 { fill: #401916 } 
		.s30 { fill: #5c2118 } 
		.s31 { fill: #571525 } 
		.s32 { fill: #de737c } 
		.s33 { fill: #de413c } 
		.s34 { fill: #fe9965 } 
		.s35 { fill: #f77c57 } 
		.s36 { fill: #0093e2 } 
		.s37 { fill: #0c6acf } 
		.s38 { fill: #078adb } 
		.s39 { fill: #1e58bd } 
		.s40 { fill: #e3f9ff } 
		.s41 { fill: #411714 } 
		.s42 { fill: #2a344a } 
		.s43 { fill: #611011 } 
		.s44 { fill: #0ba4e6 } 
	</style>
	<g id="BACKGROUND">
		<path id="&lt;Path&gt;" class="s0" d="m1000 0v1000h-1000v-1000z"/>
	</g>
	<g id="OBJECTS">
		<g id="&lt;Group&gt;">
			<g id="&lt;Group&gt;">
				<path id="&lt;Path&gt;" class="s1" d="m64 216.1h872v468h-872z"/>
				<path id="&lt;Path&gt;" class="s2" d="m86 239.1h828v422h-828z"/>
				<g id="&lt;Group&gt;">
					<g id="&lt;Clip Group&gt;" clip-path="url(#cp1)">
						<path id="&lt;Path&gt;" class="s3" d="m79 311.1c0 0 45.9 275.3 245.5 323.1 505.9 121.1 606.5-263.1 606.5-263.1l5.2 312.4-871.2 1.9 6.6-338.7z"/>
					</g>
				</g>
			</g>
			<g id="&lt;Group&gt;">
				<g id="&lt;Group&gt;">
					<path id="&lt;Path&gt;" class="s4" d="m788.2 358.7l-16.4 91.4-101-21.7 12.4-87.4z"/>
					<path id="&lt;Path&gt;" class="s4" d="m787.4 359.1l31.3-18.1-12.9 90.9-33.1 19"/>
					<path id="&lt;Path&gt;" class="s4" d="m681.8 340.3l53.3-17.2 86.7 15"/>
				</g>
				<g id="&lt;Group&gt;">
					<path id="&lt;Path&gt;" class="s5" d="m227.9 357.3c-1.7 0.8-3.5 1.3-5.2 1.8q0.7 2.8 1.5 5.6c1.1 4.4 2.7 9.8 2.3 11.8-0.5 2.1-3.2 3.2-5 2.1-0.8-0.5-1.4-1.2-1.6-2.1-1.1-3-1.9-6.1-2.6-9.3q-0.7-3.3-1.4-6.6c-2.7 0.5-5.4 1-8 1.9-2.9 0.8-5.6-2.6-4-5.1 1.1-1.8 3.3-1.9 5.1-2.6q2.7-0.8 5.4-1.5-1.4-7.2-2.7-14.3c-0.9-2.8 3.1-4.7 4.7-2.4 1.5 4.9 2.9 9.9 4.2 14.9 1.3-0.4 2.5-0.7 3.8-1.1 4.1-1.2 6.9 4.5 3.5 6.9z"/>
					<path id="&lt;Path&gt;" class="s5" d="m276.8 369.7c-8.1 1.4-7 0.7-13.2 1.9-4.8 0.6-6.4 1.6-9.5 1.6-2.3 0-4.1-2.2-3.5-4.4 1.7-3.2 2.5-3 3.8-5.2 4.5-6.9 8.8-13.3 10.5-19.4 0.8-3 0.5-5.4-0.8-7.9-1.6-1.6-2.3-2-4.3-2.6-3.4-0.2-6.1 2.4-8.7 6-1.4 2.7-6 1.2-5.4-1.8 2.6-6.3 9.8-13 17-10.5 8.4 2.7 11.1 11.9 8.2 19.6-2.2 6-5.6 12-9.4 17.4q4.4-0.9 8.9-1.7c2.5-0.2 5.6-1.6 7.7 0.5 2 1.9 1.3 5.6-1.3 6.5z"/>
					<path id="&lt;Path&gt;" class="s5" d="m322.6 326.2c-3.3 0.7-6.6 1.2-9.7 2.3-2.7 0.8-5.2-2.4-3.7-4.8 0.7-1.3 2.3-1.6 3.6-2.1 2.6-0.9 5.3-1.4 7.9-2 4.4-1.1 6.1 5.3 1.9 6.6z"/>
					<path id="&lt;Path&gt;" class="s5" d="m322.4 346.2c-1 0.9-2.6 0.9-3.9 1.3-2.5 0.7-4.9 1.6-7.3 2.6-3.1 0.9-5.7-3-3.6-5.4 0.7-1.1 2.2-1.3 3.3-1.9 2.8-1.1 5.6-2.1 8.4-3 3.7-1.1 6.3 4.1 3.1 6.4z"/>
					<g id="&lt;Group&gt;">
						<path id="&lt;Path&gt;" class="s5" d="m182.9 382.7c-3 2.9-6.7 5-10.8 6.1-3.2 0.9-6.5 1.6-9.9 1.7-0.4 0-0.6 0-0.9 0.1q0.1 0 0.2 0-0.1 0-0.1 0-0.1-0.1-0.1-0.1c-0.8 0.2-0.8 0.4-3.1-0.6-2.3-1.5-2.3-5.4 0.1-6.7 2.1-1.3 4.9-0.9 7.2-1.4 4.7-0.8 8.5-2.5 9.8-3.4 5.8-3.9 6.4-7.4 4.9-10.5q-0.4-0.6-0.9-1.1-0.5-0.3-0.9-0.6-0.3-0.1-0.7-0.3c-0.1 0-0.2 0-0.2 0q-0.2-0.1-0.4-0.1c-3-0.3-2.3-0.2-3.7-0.2-0.6 0.1-1.6 0.2-2.1 0.2-3.1 0.8-6.9-0.1-6.6-4 0.3-2.1 2.1-3.5 3.3-5.2 1.3-1.6 3-3.5 4.3-5.2-4.5 0.5-11 1.4-15.2 2.5-3.3 0.7-4.9-4.1-1.8-5.6 5.2-1.9 10.7-2.9 16.1-3.9 2.8-0.4 5.9-1.6 8.5 0 4.7 3.5 0.8 8.9-3 13.3 3.6 0.2 7 1.4 9.1 4.8 4.5 6.2 2.4 15.2-3.1 20.2z"/>
						<path id="&lt;Path&gt;" class="s5" d="m161.5 390.5q0.4 0 0.7-0.1 0.1 0 0.1 0c-0.2 0.1-0.5 0.1-0.8 0.1z"/>
					</g>
				</g>
				<g id="&lt;Group&gt;">
					<path id="&lt;Path&gt;" class="s5" d="m703.6 528.4c0.1 2.2-1.1 4.4-1.7 6.5-1.5 4.3-2.9 8.6-4.5 12.9-2.1 5.7-3.8 11.6-5.4 17.5-0.7 1.9-0.8 4.2-2.2 5.7-1.5 1.4-4 1.7-5.5 0.3-1.4-0.9-2-2.8-1.5-4.4 0.8-2.9 1.7-5.8 2.5-8.7q1.5-4.8 3.1-9.6c-2.3-0.6-4.8-1.5-6.9-1.8-4.2-1.3-9-1.5-12.6-4.1-2.8-2.3-1.1-5.7 1.4-7.5 5.9-5.5 11.6-11.1 17.7-16.3 1.4-1.5 4.2-0.4 4.1 1.7 0.1 1-0.7 1.8-1.5 2.4q-2.5 2.4-4.9 4.8c-2.9 2.9-6.8 6.9-9.5 9.9 3.4 0.5 6.8 0.9 11.7 2.1 1 0.3 2.2 0.5 3.4 0.8 1.8-4.6 3.7-9.2 6-13.6 1.5-2.7 6.1-1.8 6.3 1.4z"/>
					<path id="&lt;Path&gt;" class="s5" d="m727.9 550.9c-1.8 1.9-4.5 1-6.8 1-4.7-0.4-9.4-0.8-14.1-1.2-4.4 0.1-5.8-6.5-1.6-8.1 2.6-0.8 6.1 0.3 8.9 0.3 4.2 0.7 8.7 0.2 12.7 1.5 2.3 1.3 2.8 4.7 0.9 6.5z"/>
					<g id="&lt;Group&gt;">
						<path id="&lt;Path&gt;" class="s5" d="m761.9 567.9c-3.5 2.4-7.5 3.7-11.7 4.1-3.4 0.3-6.8 0.3-10.1-0.1-0.4-0.1-0.7-0.1-0.9-0.1q0.1 0 0.2 0-0.1 0-0.2 0 0 0 0 0c-0.8-0.1-0.9 0.2-2.9-1.2-2-1.9-1.4-5.7 1.3-6.6 2.3-0.9 4.9 0 7.3-0.1 4.8 0.1 8.8-0.8 10.2-1.5 6.4-2.8 7.6-6.1 6.8-9.5q-0.4-0.6-0.8-1.2-0.4-0.3-0.7-0.7-0.3-0.2-0.6-0.4-0.2-0.1-0.3-0.1-0.1-0.1-0.3-0.1c-2.9-0.9-2.2-0.6-3.7-0.9-0.5 0-1.5-0.1-2-0.1-3.2 0.2-6.8-1.4-5.8-5.2 0.7-2 2.7-3.1 4.2-4.5 1.6-1.3 3.6-2.9 5.2-4.4-4.5-0.3-11.1-0.6-15.4-0.2-3.4 0-4.1-5-0.8-5.9 5.5-0.9 11-0.9 16.6-0.9 2.8 0.1 6.1-0.5 8.3 1.5 4 4.3-0.8 8.9-5.4 12.6 3.6 0.8 6.7 2.6 8.1 6.3 3.4 6.9-0.3 15.4-6.6 19.2z"/>
						<path id="&lt;Path&gt;" class="s5" d="m740.2 571.9q-0.1 0-0.1 0c-0.2-0.1-0.5-0.1-0.7-0.1 0.2 0 0.6 0.1 0.8 0.1z"/>
					</g>
					<path id="&lt;Path&gt;" class="s5" d="m805.2 547.8c-1.5 0.7-3.2 0.1-4.8-0.1-4-0.6-4.1-0.6-7.2-0.9-3.1 0.1-4.1-4.7-1.2-5.7 2.8-0.6 5.8-0.3 8.7-0.4 2.1 0.2 4.9-0.1 6.2 2.1 1.1 1.7 0.2 4.3-1.7 5z"/>
					<path id="&lt;Path&gt;" class="s5" d="m803 563.7c-1.3 2.4-4.1 1.9-6.3 1.4q-3.5-0.6-7-1.4c-2.3-0.6-3.1-3.7-1.4-5.3 0.6-0.6 1.4-1 2.3-1 3 0.2 6.1 0.3 9.1 0.5 2.9-0.1 4.9 3.4 3.3 5.8z"/>
				</g>
				<g id="&lt;Group&gt;">
					<path id="&lt;Compound Path&gt;" fill-rule="evenodd" class="s6" d="m279.4 457.4c-0.3 1.5-1.8 1.9-3 2.7-0.7 0.4-6.5 5-10.9 9.8-9.6 10-16.6 24.4-20.7 37.9-0.6 2.1 0.4 1.2-1.3 3.6-1.7 1.8-5 1.2-5.8-1.2-0.7-1.7 0.1-3.6 0.4-5.4 0.6-2.3 1.4-4.7 2.3-6.9-4.5 0.1-8.9-1.9-12.8-3.9-7.1-4.7-12.5-11.5-15.3-19.5-4.4-9.8-2.6-20.6-2.8-31q-0.1-2.6-0.3-5.2-0.2-1.6-0.4-3.2c-0.2-0.8-0.9-5.4 3.6-5.6 2.5 0.1 4.7 1.5 6.8 2.6 3.3 2 6.5 4.2 9.5 6.6 12 9.2 21.1 23.5 22.5 37.3 6.4-9.7 14.6-17.7 24.6-22.2 2.1-0.6 4.2 1.5 3.6 3.6zm-38.4 34.6c-2.4-4.3-6.8-12.2-8.9-16.7-3.1-7.2-8.4-21.1-13.8-26.8-2.1-1.9 0.3-5.5 2.8-4.3 3.9 3 6.6 8.3 9 12.6 2.8 5.8 5 11.8 8.1 17.5 2 3.7 4.5 7.1 6.7 10.7q0.1-0.6 0.2-1.3c1.6-8.2-2.3-19.2-8.9-28.5-1-2-10.4-11.2-12.3-12.3-2.8-2.1-5.8-3.9-8.7-5.7q-0.1 0-0.1 0c0.3 2.2 0.5 5 0.5 6.2 0.3 9.6-1.6 19 1.1 26.4 2.2 7.6 7.3 14.6 13 18.4 3.8 2.4 8.7 4.2 11.3 3.8z"/>
					<path id="&lt;Compound Path&gt;" fill-rule="evenodd" class="s7" d="m273.8 579.4c-4.1 3.6-8.6 7.3-14.1 8.2-4 0.8-8 0.8-11.9-0.2-5.3-1.5-5.9-2.2-9.7-3.4-6.7-2.3-11.3-1.3-19.9-2.5-6.9-1.2-13.8-4.7-17.9-10.4-5.2-8.1-5.1-18.3-5.4-27.6 0.7-29.8 19.1-51.2 46.3-35.8q0.2 0.1 0.4 0.3c0.6-0.7 1.4-1.3 2.5-1.6 3.7-1.8 7.6-3.1 11.7-3.4 7.3-0.8 14.8 1.7 20.9 5.5 5.8 4 10.1 9.9 12.6 16.4 5.6 18-1.7 41.9-15.5 54.5zm7.5-52.3c-4-9.1-10.8-14.3-20.3-15.8-5.5-0.2-5.4-0.2-10.6 1.4-0.8-0.3-7.9 4.4-12.6 0.7-3.3-1.5-9.3-3.6-14.6-3.4-11.6 0.3-19.7 14.2-20.8 30.7-0.2 19.5 1 29.6 16.8 32.6 0.7 0.1 0.1 0-0.3 0 3.5 0.7 13 0.2 19.8 2.1 7 2 11.8 5.2 17 4.3 6.6-0.2 15-7 20.2-16.2 6-11.3 9.1-24.3 5.4-36.4z"/>
				</g>
			</g>
		</g>
		<g id="&lt;Group&gt;">
			<g id="&lt;Group&gt;">
				<g id="&lt;Group&gt;">
					<path id="&lt;Path&gt;" class="s8" d="m390.3 635.2c7.6 4.9 21.9 13.9 28.3 20.4-23.7 29.4-42.9 59-65.2 86.5-11.5-6.4-29.9-20.9-39.3-28.4 22.4-30.2 41.7-62.7 57.5-96.8 3.7 7.1 11.1 13.4 18.7 18.3z"/>
					<path id="&lt;Path&gt;" class="s9" d="m415.4 660l-15.9 20.4c-12.3 3.1-36.3-46.3-36.3-46.3 7 0.3 52.2 25.9 52.2 25.9z"/>
				</g>
				<g id="&lt;Group&gt;">
					<path id="&lt;Path&gt;" class="s8" d="m621.3 621.1c7.7 36.8 19.2 72.8 34.2 107.2-10.8 5.2-32.1 15.2-44.7 18.9-15.5-31.9-27.6-65-44-99 7.6-4.9 23.6-10.5 32.1-13.5 8.6-3 17.1-7.6 22.4-13.6z"/>
					<path id="&lt;Path&gt;" class="s9" d="m625.6 639.7c0 0-34.5 42.7-45.8 37l-10.9-23.5c0 0 49.8-14.8 56.7-13.5z"/>
				</g>
			</g>
			<g id="&lt;Group&gt;">
				<path id="&lt;Path&gt;" class="s10" d="m597.2 932q-0.3 14.4-1.4 28.8-0.2 3.4-0.5 6.8 0 0.3 0 0.5-0.4 3.9-0.8 7.8-0.1 1.4-0.3 2.8-0.3 2.9-0.6 5.9-0.2 1.7-0.5 3.5-0.2 2.3-0.6 4.5-0.5 3.7-1 7.4h-236.9q0 0 0 0-0.4-0.7-0.7-1.3-0.3-0.7-0.5-1.4-0.2-0.6-0.3-1.1-0.1-0.4-0.2-0.7-0.2-0.5-0.3-1.1-0.1-0.7-0.2-1.4c-0.2-1.5-0.4-3-0.4-4.4q-2.2-44.6-4.4-89.1c-1.8-43.5 3.9-89.2 18.6-129.5q0.1-0.3 0.3-0.7 2.8-7.7 6.1-15.1 0.1-0.3 0.2-0.5c9.5-21.3 21.9-40.8 37.3-57q5.9-6.2 12.3-11.7c41.7 29.4 90.7 30.1 134.8 6.4 26.7 76.4 41.9 159.2 40 240.6z"/>
			</g>
			<path id="&lt;Path&gt;" class="s11" d="m597.2 932q-0.3 14.4-1.4 28.8-0.2 3.4-0.5 6.8 0 0.3 0 0.5-0.4 3.9-0.8 7.8-0.1 1.4-0.3 2.8-0.3 2.9-0.6 5.9-0.2 1.7-0.5 3.5-0.2 2.3-0.6 4.5-0.5 3.7-1 7.4h-236.9q0 0 0 0-0.4-0.7-0.7-1.3-0.3-0.7-0.5-1.4-0.2-0.6-0.3-1.1-0.1-0.4-0.2-0.7-0.2-0.5-0.3-1.1-0.1-0.7-0.2-1.4c-0.2-1.5-0.4-3-0.4-4.4q-2.2-44.6-4.4-89.1c-1.8-43.5 3.9-89.2 18.6-129.5q0.1-0.3 0.3-0.7c1.9-5.1 4-10.1 6.1-15.1q0.1-0.3 0.2-0.5c9.5-21.3 21.9-40.8 37.3-57-1.3 20.7-14.7 278.6 145.7 258.5 0 0 28.1-1.9 41.4-23.2z"/>
			<g id="&lt;Group&gt;">
				<g id="&lt;Group&gt;">
					<path id="&lt;Path&gt;" class="s12" d="m432.9 601.5c0.2 6.7 0.5 13.5-0.7 20.1-2.1 11-8.4 20.7-14.6 30.1-2.4 3.6 0.3 14.5-3.9 15.9-4.8 1.6-15.4-7.7-19.9-10.1-20.5-11.3-38-27.9-50.4-47.7q23.2-34.2 48.4-67.1c9.1-11.8 32.8-37 58.4-40.4-6.4 29.6-17.8 69.1-17.3 99.2z"/>
					<path id="&lt;Path&gt;" class="s12" d="m575.4 519.9c22.8 12.6 46.6 60.9 63.7 91 2.3 4 4.6 8.3 4.3 12.9-0.3 6.8-6 12.1-11.7 16-20.3 14.1-45.3 21.5-70.1 20.7-1.6-0.1-3.3-0.2-4.5-1.2-2-1.5-2-4.4-1.9-6.8 2.5-42 4.8-87.8 20.2-132.6z"/>
					<path id="&lt;Path&gt;" class="s13" d="m476.1 525.7c1.3 3.6 3 7.5 6.5 8.8 2.6 0.9 5.3 0.1 7.8-0.9 6.2-2.4 11.9-5.9 16.7-10.4 4.5-4.1 8.4-9 13.7-12 10.5-5.9 23.7-2.5 35.3 0.9 11.6 3.5 24.3 7.9 30 18.6 2.7 5.1 3.4 10.9 3.9 16.6 4.2 51.2-6.7 103.5-31.1 148.7-44.9 20-98.1 17.2-139.6-6.9-10.5-13.9-7.9-34.8-8.7-52.6-1.3-31.3-3.7-60.9 2.7-91.6 2.5-11.8 5.9-24.2 14.7-32.4 11.2-10.6 28.2-11.6 43.6-12.1-0.6 9.4 1.8 17.3 4.5 25.3z"/>
					<g id="&lt;Group&gt;">
						<path id="&lt;Path&gt;" class="s14" d="m494.4 532.7c0.7 4.9 1.5 10 4.1 14.2 0.6 1.1 1.4 2.3 1.3 3.5 0 1.6-1.3 2.7-2.5 3.7-9.4 7.7-19.4 15.7-31.4 17.1-3.9 0.5-8.4 0-10.7-3.1-1.4-1.9-1.8-4.4-2-6.8-0.9-9.3-1-18.6-0.5-27.9 0.3-6.7 1.1-13.5 3.4-19.8 2.3-6.3 6.2-12.1 11.9-15.7 5.7-3.6 13.2-4.6 19.2-1.5 3.6 11.5 5.4 23.9 7.2 36.3z"/>
						<path id="&lt;Path&gt;" class="s14" d="m533.8 499.6c4.8 3.4 9.8 6.9 12.7 12 2.5 4.4 3.4 9.5 4 14.5 1.7 14.3 1.9 29.3-3.4 42.7-1.5 3.9-3.8 7.9-7.7 9.3-4 1.4-8.3-0.4-12-2.2q-7.4-3.6-14.5-7.6c-6.1-3.5-12.8-8-14.1-15.1-0.9-4.8 0.9-9.7 2.9-14.1 7.1-15.6 17.7-29.4 32.1-39.5z"/>
					</g>
					<g id="&lt;Group&gt;">
						<path id="&lt;Path&gt;" class="s5" d="m489.9 589c0.7-3.9 3.4-6.7 5.9-6.2 2.4 0.5 3.9 4 3.1 8-0.8 3.9-3.4 6.7-5.9 6.2-2.5-0.5-3.9-4-3.1-8z"/>
						<path id="&lt;Path&gt;" class="s5" d="m486.4 630.5c0.7-3.9 3.4-6.7 5.9-6.2 2.4 0.5 3.9 4 3.1 8-0.8 3.9-3.4 6.7-5.9 6.2-2.5-0.5-3.9-4.1-3.1-8z"/>
						<path id="&lt;Path&gt;" class="s5" d="m481.6 677c0.8-3.9 3.4-6.7 5.9-6.2 2.5 0.5 3.9 4 3.2 8-0.8 3.9-3.4 6.7-5.9 6.2-2.5-0.5-3.9-4.1-3.2-8z"/>
					</g>
				</g>
				<path id="&lt;Path&gt;" class="s15" d="m407.3 696.9c2.7-4.8 5.7-8.7 8.7-12.6 43.8 24.9 97.3 28.4 145 11.2q1.9 7.4 3.8 14.8c-52 19.7-110.1 13.9-157.5-13.4z"/>
			</g>
			<g id="&lt;Group&gt;">
				<path id="&lt;Path&gt;" class="s8" d="m526.6 477.7c2.7 0.7 5.7 1.6 7.2 3.9 1.4 2.2 1.3 4.9 1.2 7.4q-0.7 10.4-1.3 20.9c-0.6 9.5-1.3 19.3-5 28.1-3.7 8.8-11.1 16.7-20.5 18.3-8.1 1.4-16.5-2-22.6-7.4-6.3-5.5-10.7-13.4-11.1-21.8-0.2-6.1 1.6-12.1 3.1-18 3-12.6 4-25.7 3-38.6 15.2 0.4 30.8 3.2 46 7.2z"/>
				<path id="&lt;Path&gt;" class="s9" d="m535.1 489.5c-6.5 23.5-58.6 24.1-58.6 24.1l4.1-29.7c24.1 11.9 54.5 5.6 54.5 5.6z"/>
			</g>
			<g id="&lt;Group&gt;">
				<g id="&lt;Group&gt;">
					<path id="&lt;Path&gt;" class="s16" d="m498.2 290.7c-3.4-9.1-5.3-19-4-28.7 1.3-9.6 6.1-19.1 14-24.7 7.4-5.3 16.8-7 25.8-7.8 7.8-0.6 15.7-0.7 23 1.9 9.5 3.3 17.1 11 21 20.3 4 9.2 4.4 19.7 1.9 29.5-1.1 4.1-2.7 8.3-5.7 11.4-4 4.1-9.9 5.8-15.5 6.9-14 2.9-28.3 3.9-42.5 2.8-3.8-0.3-7.6-0.8-11.1-2.3-3.4-1.6-5.2-4.8-6.9-9.3z"/>
					<path id="&lt;Path&gt;" class="s16" d="m446.9 404.4c-13.9-16-15.8-31.5-14.4-52.7 5.2-78.9 108-73.1 108.3-73.1 93.3 6.3 94.4 121.5 42.7 152.6-12.9 7.7-18.8 2-33.8 1.8-15.4-0.3-30.9-0.9-45.9-4.4-15-3.6-40.9-5.7-56.9-24.2z"/>
					<g id="&lt;Group&gt;">
						<g id="&lt;Clip Group&gt;" clip-path="url(#cp2)">
							<path id="&lt;Path&gt;" class="s17" d="m443.9 297.7c9.2-11.9 22.2-20.7 36.4-25.8 14.2-5.2 29.6-6.8 44.7-6 21.4 1.2 42.7 7.6 60.3 19.9 17.5 12.4 30.9 31 35.2 52 4.3 21-1.1 58.7-15.8 74.4 1.3-18.9 17-110.9-56.7-130.3-17.5-4.5-36.3-3.4-53.6 1.7-18.4 5.5-37.6 12.5-49.7 27.3-12 14.9-16.6 37.8-13.8 56.7-5.8-25.4-1.9-50.7 13-69.9z"/>
						</g>
					</g>
					<g id="&lt;Group&gt;">
						<g id="&lt;Clip Group&gt;" clip-path="url(#cp3)">
							<path id="&lt;Path&gt;" class="s17" d="m503.7 235.6c6.2-8.1 15.2-14.3 25.2-16.2 12.3-2.3 25.2 2 35.4 9.3 8.6 6.2 15.8 14.8 19.2 24.9 5.3 15.7 2.7 25.4-9.8 36.2 3-10.4 2.3-12.3 0.8-23-1.4-10.7-6.3-21.2-14.7-27.9-10.6-8.4-38.8-6.4-51.3-1.4-12.6 4.9-16.4 10.1-21.7 22.5-0.1-8.4 10.6-16.3 16.9-24.4z"/>
						</g>
					</g>
					<path id="&lt;Path&gt;" class="s12" d="m533.4 267.3c32.6 0 39.9 16.8 44.5 20.9-25.6-11.8-55.1-14.1-82.2-4.8 4.3-11.9 24.1-16.1 37.7-16.1z"/>
				</g>
				<path id="&lt;Path&gt;" class="s18" d="m456.1 426.1c-0.1 4.2-1.6 8.7-4.9 11.4-4.1 3.4-10.3 3.4-15 0.7-4.6-2.6-7.7-7.3-9.4-12.4-1.7-5.1-2-10.5-2.2-15.8-0.2-5.4 0-11.5 3.8-15.5 3.7-3.9 10.3-4.4 15-1.7 4.8 2.6 7.7 7.8 8.7 13.2 2 11.8 4.1 15.8 4 20.1z"/>
				<path id="&lt;Path&gt;" class="s18" d="m592.3 411.1c3.7-3.2 9.5-3 13.5-0.2 4 2.7 6.2 7.4 6.8 12.2 0.7 4.8-0.2 9.7-1.4 14.4-1.3 5.4-3.1 10.8-6.3 15.4-3.2 4.6-8 8.4-13.5 9.4-5.5 1-11.7-1.1-14.7-5.8-2.2-3.7-2.4-8.3-1.4-12.5 1.1-4.1 3.2-7.9 5.3-11.7 3.9-7 5.5-15.8 11.7-21.2z"/>
				<g id="&lt;Group&gt;">
					<path id="&lt;Path&gt;" class="s8" d="m499.9 310.9c16.8 35.5 48 61.1 83.8 70.6 1.1 10.5 4.6 20.3 9.8 29.1-6.8 25.4-15.1 53.9-37.3 69.8-15.4 10.9-35.6 13.9-54.2 10.5-12.1-2.2-23.9-7-33.1-15.1-14.8-13-21.4-33.4-21.9-53.1-0.6-19.6 4.2-39 9-58.1 22-8.7 39.1-29.8 43.9-53.7z"/>
					<g id="&lt;Group&gt;">
						<g id="&lt;Clip Group&gt;" clip-path="url(#cp4)">
							<path id="&lt;Path&gt;" class="s9" d="m493.6 314.7c1-1.9 2.4-4.1 4.6-4.1 1.3-0.1 2.4 0.7 3.5 1.5 17.5 13.2 28.7 34 47.6 45.3 8.8 5.2 18.9 8.1 27.2 14.2 13.1 9.7 19.8 27.3 16.4 43.3-7.3-8.5-15-19.4-13-30.4-15.7-6.8-28.1-11.9-43.3-19.7-15.3-7.8-29.4-20.3-33.2-37.1-7.9 19.6-26.6 34.5-47.4 37.8 14.2-14.9 27.4-32 37.6-50.8z"/>
						</g>
					</g>
				</g>
				<g id="&lt;Group&gt;">
					<path id="&lt;Path&gt;" class="s16" d="m464.9 381.8c-6.1 0.4 9.6-7.3 15.8-8.4 6.2-1 12.9-0.6 18.4 2 1.4 0.8 3 1.8 3 3.3 0.2 3.6-5.9 1.2-12.8 1.2-13.6 0-19.3 1.6-24.4 1.9z"/>
					<path id="&lt;Path&gt;" class="s16" d="m555.3 387.9c-6.7-2.1-13.1-1.7-11.9-5 0.5-1.4 2.2-2 3.8-2.2 6.1-0.9 12.6 0.7 18.2 3.6 5.6 2.8 18.3 14.9 12.6 12.7-4.8-1.8-9.8-5.1-22.7-9.1z"/>
					<path id="&lt;Path&gt;" class="s19" d="m571.4 429.2c-1.3-1.5-3.4-3.9-5.3-5.5-3.6-3.3-9.6-5.1-13.7-5.6-5.5-1.2-12.8 0.1-18.9 4.3 3.2-3.6 7.2-6.6 12-7.9 9.1-1.9 19.4 2 23.8 10.4q1.2 2.1 2.1 4.3z"/>
					<path id="&lt;Path&gt;" class="s19" d="m503.8 419.2c-1.3-1.5-3.4-3.9-5.2-5.5-3.7-3.3-9.7-5.1-13.8-5.6-5.5-1.2-12.7 0.1-18.9 4.3 3.3-3.6 7.2-6.6 12-7.9 9.1-1.9 19.4 2 23.9 10.4 0.7 1.4 1.5 2.8 2 4.3z"/>
					<path id="&lt;Path&gt;" class="s20" d="m515.7 422.4c-3.5 3.1-4 10.1-1.7 13.9-0.3-1.1-0.4-2.2-0.4-3.3 0-1.8 0.2-4.1 0.4-5.5 0.2-1.4 0.5-3.8 1.7-5.1z"/>
					<path id="&lt;Path&gt;" class="s21" d="m538.7 452.2c-0.3 0.6-1.4 1.8-2.1 2.5-6.3 6.4-16.3 8.7-24.8 5.9-2.9-0.8-5.9-1.8-8-4.1 1.7 1 3.5 1.4 5.4 1.6 9.2 1.2 15.8 0.5 24-2.8 2-0.8 3.7-1.9 5.5-3.1z"/>
				</g>
			</g>
		</g>
		<g id="&lt;Group&gt;">
			<path id="&lt;Path&gt;" class="s15" d="m713.7 1000h-134.5c3.3-9 8.9-19.3 14-26.4q1.6-2.1 3.1-3.9c33.4-4.6 69-7.3 104.6-5.9 3.3 0.1 6.9 0.4 9.5 2.5 2.9 2.3 3.8 6.4 4.4 10.1 0.1 1.2 0.3 2.5 0.3 3.8 0.2 5.8-0.7 13-1.4 19.8z"/>
			<g id="&lt;Group&gt;">
				<path id="&lt;Path&gt;" class="s8" d="m747.1 774.4c16.9-16.7 31.1-36 42.5-57.7-5.6-15.5-8.6-31.9-9-48.3-0.1-2.3-0.1-4.6 1-6.6 1-2 3.5-3.4 5.6-2.6 1.8 0.7 2.7 2.8 3.3 4.6 1.8 5 4.1 13.9 6.4 18.8 7.4-12.7 11.9-23 18.9-35 0.9-1.6 2.8-2.7 4.6-2.5 1.7 0.1 3 1.6 3.5 3.3 0.5 1.6 0.2 3.4-0.1 5.1-1.6 8.8-4.6 17.4-9.2 26.4 6.5-6.8 8.4-11.3 17.3-21.4 1.1-1.3 2.8-2.4 4.5-2.3 2.2 0 3.9 2.1 4.3 4.2 0.4 2.1-0.2 4.3-0.9 6.4-2.6 7.6-6.6 14.6-10.9 21.8 3.3-3.1 5.8-7 11.5-10.5 1.6-1 4-1.3 5.5-0.1 1.5 1.2 1.5 3.4 1.1 5.3-1.6 8.4-7.9 15-13.3 21.3 2.8-2.9 6.2-5.3 10-6.9 1.2-0.5 2.6-1 3.8-0.5 1.5 0.6 2.2 2.3 2.1 3.9-0.2 1.6-1 3-1.9 4.3-8.9 13.4-18.1 16.7-30.4 24.1-14.2 33.4-37.4 70.3-58.4 99.9-0.6 0.9-1.3 1.8-2.4 1.8-1 0-1.8-0.9-2.3-1.8-11.1-16.2-20.9-41.3-7.1-55z"/>
				<path id="&lt;Path&gt;" class="s22" d="m703.2 850.1c-0.5-3.7-0.8-7.6 0.7-11 1.9-4.5 6.5-7.1 10.6-9.6 10.4-6.2 20.1-13.6 28.9-21.9 0.8-0.8 3.9-0.2 5 0 0.6 0.1 1.7-2.5 2.1-2.1 10.8 8.9 21.5 29 25.1 34.5 7.2 10.7-49.5 44.2-61.6 65.1-2.6-15.4-8.8-38.5-10.8-55z"/>
			</g>
			<g id="&lt;Group&gt;">
				<path id="&lt;Path&gt;" class="s22" d="m701 845.4c5.7 1.6 11.7 3.9 14.8 9 2.6 4.2 2.6 9.4 2.5 14.2q-0.3 19.7-0.6 39.4-0.5 35.9-1 71.8c-41.6 12.4-85.5 9.6-123.9-6.4 4.9-27.2 9.9-53.2 14.8-79.1 2.3-12-14.4-20.6-5.7-29.3 10.9-10.9 33.3-24.7 45.5-24.9 17.4-0.4 36 0.3 53.6 5.3z"/>
				<g id="&lt;Group&gt;">
					<g id="&lt;Clip Group&gt;" clip-path="url(#cp5)">
						<path id="&lt;Path&gt;" class="s23" d="m723.8 984c-28.9 19.6-136.3-9.4-136.3-9.4l5.3-6.7c0 0 45.7 19.7 82.4-2.3 50.9-30.5 49.5-112.6 49.5-112.6 16.4-6.8 28 111.4-0.9 131z"/>
					</g>
				</g>
			</g>
			<g id="&lt;Group&gt;">
				<path id="&lt;Path&gt;" class="s24" d="m686.7 831.1c9-3.1 23.5 19.3 23.5 35.8-10-7.5-20.6-6.6-30-0.2-0.8-10.5-0.9-19.4-4.5-28.3 2.9-2.7 6.6-5.8 11-7.3z"/>
				<path id="&lt;Path&gt;" class="s24" d="m679.2 866c-11.7 0.5-23 4.7-31.2 12-3.7-6.2-7.4-12.5-9.3-19.3-2-6.9-2.2-14.5 1.1-20.9 3.2-6.4 10.4-11.2 17.9-10.7 6.9 12.5 13.6 26.1 21.5 38.9z"/>
				<g id="&lt;Group&gt;">
					<path id="&lt;Path&gt;" class="s25" d="m688.5 853.3c-0.3 1.1-0.7 2.3-1.1 3.4-1.7 4.4-3.8 9.3-8.1 10.7-3 1.1-6.3 0-9.1-1.5-4.1-2.2-7.8-5.2-10.9-8.8-4-4.8-7-10.7-8.5-16.9q-1.1-4.6-1.1-9.4c4.7-4.2 11.2-3.4 16.9-1.1 5.8 2.3 10.9 6 15.9 9.7 2.6 1.9 5.4 4 6.3 7.3q0.2 0.4 0.2 0.8c0.4 1.9 0.1 3.8-0.5 5.8z"/>
					<path id="&lt;Path&gt;" class="s9" d="m690.7 851.5c-0.5 0.7-1.3 1.3-2.2 1.8-6.2 3.5-20.3 3.9-29.2 3.8-4-4.8-7-10.7-8.5-16.9 2.7 0.2 30 2.7 38.2 7.3 2.2 1.2 3 2.5 1.7 4z"/>
				</g>
			</g>
			<g id="&lt;Group&gt;">
				<g id="&lt;Group&gt;">
					<path id="&lt;Path&gt;" class="s26" d="m490.2 838.6c-2.1-4-4.2-8-5-12.3-0.2-1.4-0.3-2.8 0.2-4.1 0.5-1.3 1.6-2.6 3.1-3.1 2.1-0.7 4.5-0.1 6.2 1 1.6 1.2 2.8 2.7 3.8 4.3q5.5 7.8 10.9 15.6c0.4 0.6 0.8 1.2 0.6 1.7-0.3 0.8-1.4 1.1-2.3 1-0.9 0-1.8-0.4-2.7-0.5-1.8-0.4-3.7 0-5.5 0.3-1.9 0.3-3.8 0.5-5.6 0-1.7-0.6-2.8-2.4-3.7-3.9z"/>
					<path id="&lt;Path&gt;" class="s8" d="m613.5 943.8c-5.2 3-10.4 6.3-15.5 9.5-9.5 5.9-19 11.6-28.9 15.8-5.1 2.9-12.2 1.4-16.9-2.4-4.7-3.7-7.7-9.2-10.5-14.6q-16-29.9-31.9-59.9c-5.8-1.6-12.1-3.5-17.8-6.7-5.7-3.2-10.8-7.8-13.6-13.8-2.9-6.3-2.9-13.7-1.4-20.6 1.3-6 3.9-12.2 9.2-15.4 5.2-3.3 13.4-2.1 15.9 3.5 3.5-0.5 7.3-0.8 10.2 0.8 3 1.5 4.9 4.8 4.8 8.1 3.4-1.4 7.2-1.5 10 0.3 2.8 1.9 4.1 5.8 2.5 8.7q0 0.1-0.1 0.1 0 0 0 0c4 1.1 6.6 2.7 8.3 4.9 0.9 1.2 1.6 2.6 1.4 4-0.2 1.5-1.5 2.8-2.9 2.6 2.8 1.2 4.3 4.3 4.6 7.4 0.3 3-0.3 6-0.4 9.1-0.2 4 17.7 30.6 23.3 32.1 0.7 0.2 1.8-0.1 3.2-0.9 5-2.5 13.4-9.9 15.7-11.3 3-1.8-3.4 5.8-0.2 4.2 8.8 13.4 19.3 24.7 31 34.5z"/>
					<g id="&lt;Group&gt;">
						<path id="&lt;Path&gt;" class="s27" d="m487.1 864.2c-0.1 0.6-0.1 1.5-0.1 1.9 0.3-0.8 0.8-2.3 1-2.7q1.2-2.8 2.4-5.6 0 0-0.1 0.2c1-2.4 2.8-6.4 4.1-9.3 1.3-3 2.6-5 5-7.2 1-0.9 2.3-2 4-2.2-11 0.9-15 15.8-16.3 24.9z"/>
						<path id="&lt;Path&gt;" class="s27" d="m517.1 848.4c-3 0.9-5.2 3.3-7.3 5.6-2.7 3-5 6-6.8 10.2-0.7 1.5-1.5 3.7-2.1 5.7-0.1 0.2 0-1.3 0-1.6 0.3-6 2.8-11.6 7.4-15.5 2.5-2 5.4-4.2 8.8-4.4z"/>
						<path id="&lt;Path&gt;" class="s27" d="m514.7 871.4c-0.1 0.7-1 4-0.4 2.6 1.9-3.6 4.6-9 6.7-11.2 2.4-3.1 5-5.5 9.2-5.6-8.5-2-14.4 6.8-15.5 14.2z"/>
					</g>
					<path id="&lt;Path&gt;" class="s9" d="m613.5 943.8c-5.2 3-10.4 6.3-15.5 9.5-14-8.4-25.1-21.7-31-36.9 5-2.5 13.4-9.9 15.7-11.3 3-1.8-3.4 5.8-0.2 4.2 8.8 13.4 19.3 24.7 31 34.5z"/>
				</g>
				<path id="&lt;Path&gt;" class="s28" d="m563.6 908.2c0 0 19.6-25.4 36-41.9 6.6-6.6 12.9-11.4 19.8-8.8 22.4 8.4 15.1 54.1 2.1 95.2-23.5-7.2-48.1-24.5-57.9-44.5z"/>
			</g>
			<g id="&lt;Group&gt;">
				<g id="&lt;Group&gt;">
					<path id="&lt;Path&gt;" class="s29" d="m603.4 761.1c5.7 5.2 7.8 13.1 9.6 20.5q3 12.1 6 24.2c1.6 6.6 3.2 13.4 2.5 20.2-1.1 10.6-8.1 20.1-17.3 25.5-6.8 4-14.6 6-21.3 10-6.8 4.1-12.6 11.5-11.2 19.2-5.8-5-9.5-12.6-9.9-20.3-0.2 2.8-0.1 4.9 0 7.1-6.8-7.4-8.7-18.6-5.6-28.4 3.1-9.7 11.2-17.7 21-20.7 5.5-1.7 12.3-2.4 15.3-7.4 2.6-4.4 0.9-10-0.7-14.9-4.2-13-11.9-33-13-46.6 0.7-0.8 6.5 5 7.2 4.3 9.1 2.2 13.8 4 17.4 7.3z"/>
					<g id="&lt;Group&gt;">
						<g id="&lt;Clip Group&gt;" clip-path="url(#cp6)">
							<path id="&lt;Path&gt;" class="s30" d="m596.5 805.6c-0.2 8.6-5.1 16.9-12.5 21.2-5.1 3-11.2 4.2-16.1 7.5-7.5 5.1-10.9 15.5-7.9 24.1 0.4-3.1 2.2-5.9 4.8-7.5 0.6 6.9 3.2 20.9 3.2 20.9 0 0 16.4-15.2 20.2-16.4 3.8-1.3 14-3.4 17.8-4.6 8.3-2.7 6.9-0.6 11.8-7.9-8 13.9-25.7 15.8-34.2 29.4-2.5 4-5 8.8-9.5 10.2-3.4 1-7.1-0.2-9.9-2.4-2.7-2.2-4.6-5.3-6.3-8.4-3.5-6.5-6.3-13.6-7.3-21-1-7.4 0-15.1 3.7-21.6 3.5-6.3 9.3-11.1 15.6-14.6 6.4-3.5 13.3-5.7 26.6-8.9z"/>
						</g>
					</g>
				</g>
				<g id="&lt;Group&gt;">
					<g id="&lt;Group&gt;">
						<path id="&lt;Path&gt;" class="s9" d="m736.6 783.6c1.7-8.4-1.7-21.7 11.6-17.7 34.1 10.3 14 44.3 5.2 46.3-5.3 1.2-11.6 2.4-15.9-0.6-3.5-2.5-5.1-6.4-5.2-10.2-0.1-3.8 2.1-7.3 4.3-17.8z"/>
						<path id="&lt;Path&gt;" class="s8" d="m619.3 800c2.6 3 5.3 6 6.9 9.5 1.5 3.5 1.9 7.6 0 11.1-2.5 4.6-8.7 7.3-14.5 7.2-5.9-0.1-11.3-2.7-15.2-6.2-3.8-3.6-6.4-8.1-8.5-12.6-1.7-4-3.2-8.1-3.2-12.4 0.1-4.2 1.8-8.7 5.7-11.7 3.8-3 9.8-4 14-1.8 7.1 3.8 9.8 11.3 14.8 16.9z"/>
					</g>
					<path id="&lt;Path&gt;" class="s8" d="m746.7 750.9c0.6 16.9 5.2 33.6 5.4 50.6 0.1 17-5.5 35.7-20 44.5-8.2 4.9-18.1 6.1-27.7 6.7-15.5 0.8-31.3 0.2-45.9-5-30.3-10.8-51.8-42.6-50.2-74.7 1.6-32.1 26.5-61.7 57.9-68.4 31.4-6.7 79.1 7.8 80.5 46.3z"/>
					<path id="&lt;Path&gt;" class="s9" d="m748.7 768.8c-9.2-6.5-21.2-2.4-31.5-6.9-6.7-3-9.8-10.8-15.6-15.3-5.7-4.4-13.3-5.2-20.5-4.9-7.2 0.4-14.4 1.7-21.5 0.9-7.1-0.8-16.1-1.7-19.1-8.2 3.1 12.3 1.5 28.2-4.4 39.4-5.5 10.7-14.5 15.2-23.5 17 0.6-4.4 1-8.9 1.4-13.3 0.2-2.4-1-4.3-2.8-5.4q1.1-4.2 2.1-8.4c2.8-11 5.6-22 9.9-32.6 3.6-8.6 8.6-17.4 16.9-21.7 9.4-5 20.8-3.3 31-0.4 21.6 6.2 41.3 17.4 60.8 28.5 5.8 3.3 11.9 6.9 14.9 12.9 2.8 5.5 2.4 12.1 1.9 18.4z"/>
					<g id="&lt;Group&gt;">
						<path id="&lt;Path&gt;" class="s29" d="m762.2 757.3c-2.1 4.2-9.3 12.6-13.6 10.8-1.6-4.3-4.5-7.1-9.2-8.4 0.2 0.3 0.4 0.4 0.6 0.7q-0.8-0.5-1.7-0.9c-0.6-0.1-1.3-0.3-2-0.3-4.3-0.4-8.1-1.3-11.5-2.3q-1.6 0.2-3.5 0.6c-2.9 0.8-5.5 1.8-7.5 4.3 1.4-3 4.1-5 7.2-6.3-9.9-4-15.7-10-21-13.3-9.2-5.7-19.9-5.2-30.7-3.6-13.8 1.9-23.1-3.3-30.7-15.1-1.4 14.4-3.1 27.6-6.1 40.6-1.4 5.8-3 11.7-6.2 16.8-3.3 5.1-15.7 12-16.1 10.4-5.2-17.3-24.4-12.7-28.9-27.7-4.5-15-7.4-29.7-0.8-43.9 4.3-9.2 12.2-18.1 22.3-18 6.7-17 20.7-34.3 39.3-43.6 18.6-9.3 41.9-10 60 0.1 7.3 4.1 13.6 9.7 20.7 14.1 8.2 5.1 17.5 8.6 25.6 14.1 8 5.5 15 13.8 15.3 23.6 0.3 6.6-2.6 13-2.7 19.6 0 4.7 1.4 9.2 2.2 13.9 0.9 4.6 1.1 9.6-1 13.8z"/>
						<g id="&lt;Group&gt;">
							<g id="&lt;Clip Group&gt;" clip-path="url(#cp7)">
								<path id="&lt;Path&gt;" class="s30" d="m568.9 738.7c0.7-8.9 3.3-18 9.6-24.3 5-5.1 11.8-7.9 17.6-12.2 9.2-6.9 15.2-17.1 22.5-26.1 12.6-15.4 30.1-27.4 49.8-30.1 15.3-2 30.8 1.7 45.4 6.6 14.6 4.9 29.1 11.3 40.4 21.7 17.8 16.2 26.2 42 21.4 65.5-1.6 7.9-4.6 15.6-9.9 21.6-5.3 5.9-0.6-9.2-1.9-20.2-0.6-5.8-3.6-6.3-4.1-12.1-0.3-5.4 2.8-18.1-1.5-26.1-5-9.5-29-17.4-37.7-23.9-23.5-17.5-39.4-31.9-74.7-10.7-15 8.9-20 26.6-32.3 38.9-7.2 7.2-15.5 6.1-21.3 11.7-7.1 7-10.8 15.7-10 25.7 1 14-3.8 41.9 1.2 55.1-17.4-6.7-16-39.9-14.5-61.1z"/>
							</g>
						</g>
					</g>
					<g id="&lt;Group&gt;">
						<g id="&lt;Group&gt;">
							<path id="&lt;Path&gt;" class="s31" d="m711.3 829.2c-1.3 2.8-3.4 5.3-5.9 6.9-5.5 3.5-13 2.8-17.8-1.5-2.7-2.4-4.5-5.7-5.2-9.3-0.5-3.1-0.4-6.2 0.6-9.2q0.1 0.1 0.2 0.1c9.9 3.5 20 4.2 29.7 2.5q0 0.4 0.1 0.8c0.4 3.3-0.2 6.7-1.7 9.7z"/>
							<path id="&lt;Path&gt;" class="s32" d="m710.7 830.3c-1.3 2.4-3.1 4.4-5.3 5.8-5.5 3.4-13 2.8-17.8-1.6q-2-1.7-3.3-4.2c4.8-3.9 11.4-4.5 17.2-3.8 3.2 0.4 6.5 1.9 9.2 3.8z"/>
							<path id="&lt;Path&gt;" class="s5" d="m713 819.5c-1.4 1.2-3 2.2-4.8 2.7-3.2 1.1-6.6 1.2-10 1-3.5-0.3-7-0.7-10.1-2.4-2-1.1-3.8-2.7-4.9-4.6 9.9 3.5 20 4.2 29.7 2.5q0 0.4 0.1 0.8z"/>
						</g>
						<path id="&lt;Path&gt;" class="s29" d="m670.7 760.7c-10.4-5.1-22.1-1.8-26.6 9.3 2.4-3.7 6.4-6.1 9.6-7.3 4.9-1.8 8.5-2.1 13.7-1.7 1.9 0.1 3.5 0.4 5.3 0.7q-1-0.5-2-1z"/>
						<path id="&lt;Path&gt;" class="s19" d="m679 801.2c-6.7-11.5-26.6-8.9-29.7 4 1.3-2.1 4.8-3.8 6-4.2 6.2-2.2 10.3-2.6 16.3-2.1 1.5 0.2 3.3 0.8 4.5 1.3 0.8 0.2 4 2.4 2.9 1z"/>
						<path id="&lt;Path&gt;" class="s19" d="m741.1 793c-1.8-0.9-3.7-1.7-5.6-2.1-4-0.9-6.6-0.6-10.5 1.2-2.4 1.4-5.5 2.3-7.2 4.6 0-1.3 0.9-2.5 1.7-3.5 1.8-2.6 4.3-4.8 7.2-6 4.5-1.7 9.6 0.3 12.7 3.7 0.6 0.6 1.2 1.3 1.7 2.1z"/>
						<path id="&lt;Path&gt;" class="s33" d="m711.3 804.6c0 1-0.9 6-1.1 2.9-0.3-2.6-0.4-3.4-0.7-5.5-0.2-1.7-0.2-3.2-0.7-4.8 1.6 2 2.5 4.8 2.5 7.4z"/>
					</g>
				</g>
			</g>
		</g>
		<g id="&lt;Group&gt;">
			<g id="&lt;Group&gt;">
				<path id="&lt;Path&gt;" class="s34" d="m215.9 852c-3.8 1.6-8.3 2.6-12.1 0.9-4.3-1.9 2.8-3.3 0.4-7.3-20.7-34-36-75.8-41.5-113.7-7.9 0.6-16.7-2.1-25.2-5.4-2-0.8-4-1.7-5.6-3-1.7-1.4-2.9-3.4-2.8-5.6 0-2.9 2.5-5.3 5.3-6.1 2.7-0.8 5.7-0.2 8.4 0.7 2.8 1 5.3 2.4 8.1 3.2-2.1-1-4.8-2.7-7.5-4.3-2.6-1.6-5.3-3.3-7.2-5.8-1.8-2.5-2.6-6-1.1-8.7 1.5-2.6 4.8-3.7 7.8-3.4 3 0.4 5.7 1.9 8.2 3.6 2.5 1.7 4.9 3.6 7.6 4.7-2.8-2-5.3-5.1-7.8-8.1-1.5-2-3.1-3.9-4.1-6.2-0.9-2.3-1.1-5 0.1-7.2 1.7-3.3 6.1-4.5 9.7-3.4 3.6 1 6.4 3.6 8.8 6.5 2.4 2.8 4.6 5.9 7.5 8.2-3.3-3.9-5.7-9.4-7.2-15.2-0.6-2.4-1-4.9-0.5-7.2 0.4-2.4 2-4.7 4.4-5.4 3.4-1 6.8 1.6 9.2 4.3 5.8 6.3 10.3 13.6 13.5 21.4 0.3-4.4 1.2-9.3 4.2-12.9 3-3.6 9-5 12.4-1.8 2.8 2.7 2.6 7.1 1.6 10.8-2.3 8.3-8.2 15.2-10.8 23.5-3.5 11.5-0.2 23.8 3.2 35.4 8.1 28.4 16.6 57.5 34.6 80.9-5.3 17.4-13 23.2-21.6 26.6z"/>
				<path id="&lt;Path&gt;" class="s35" d="m193.4 825.5c20.4-1.3 29.9-1.1 41.7-8.1-5.7 12.8-18.9 48.7-26.8 37.1-3.3-4.9-14.9-29-14.9-29z"/>
			</g>
			<g id="&lt;Group&gt;">
				<path id="&lt;Path&gt;" class="s36" d="m379.8 1000h-128c-0.5-4.7-0.8-9.4-1-11.7q-0.1-0.3-0.1-0.6 0-0.4 0-0.7c0 0-1.5-48 0.5-71.9-21.2-17-40.7-35.5-58.3-55.6q4.6-7.7 9.9-14.9 0.2-0.3 0.5-0.6 8.3-11.3 18.2-21.2 0.3-0.3 0.7-0.6 3.8-3.9 7.9-7.5 0.2-0.2 0.3-0.3 1.8-1.5 3.5-3 2.1 1.5 4.2 2.9c7.8 5.3 16 10.1 24.3 14.6q3.4 1.8 6.9 3.5 9.6 4.7 19.4 8.7c7.5 3 15.2 5.7 22.9 8.1q4.6 2 9.1 4.3 2 1 4 2 0.6 0.3 1.2 0.6 2 1.1 4 2.2 2.7 1.4 5.3 2.9c9.9 5.7 19.8 12.2 29.4 19.6q0.2 0.1 0.4 0.3c0.8 14.2 1.9 28.5 3.4 42.7q0.6 5.8 1.3 11.6 0.2 1.7 0.4 3.4c0.6 4.7 1.2 9.4 1.8 14q1 7.2 2.1 14.3 2.6 16.5 5.8 32.9z"/>
				<g id="&lt;Group&gt;">
					<path id="&lt;Path&gt;" class="s37" d="m262.9 871.8c-4.8 13.9-8.6 28.1-11.5 42.5 0.1-14.8 4-29.6 11.5-42.5z"/>
					<path id="&lt;Path&gt;" class="s37" d="m244.7 859.9c-0.6 18.1 1.6 36.3 6.6 53.7-9.4-15.7-11.9-35.4-6.6-53.7z"/>
				</g>
				<path id="&lt;Path&gt;" class="s38" d="m251.7 1000q-0.5-5.1-0.8-10.1c-0.1-0.5-0.1-1.1-0.1-1.6q-0.1-0.3-0.1-0.6 0-0.4 0-0.7c13.5 1.8 27.3 2.2 40.8 0.2 17.4-2.6 34.4-9.4 47.4-21.2 4.8-4.3 9-9.4 12.4-14.9 5.8-9.5 9.2-20.3 9.1-31.4 3.1 1.3 5.8 2.7 8 4.1q0.6 5.8 1.3 11.6 0.2 1.7 0.4 3.4c0.6 4.7 1.2 9.4 1.8 14q1 7.2 2.1 14.3 2.6 16.5 5.8 32.9h-128z"/>
				<path id="&lt;Path&gt;" class="s39" d="m336.2 944.3c-11.9 1.4-24.2 0.1-35.5-3.5-0.9-2.2-0.8-4.2 0.4-6.3 11.3 2.6 23.2 3.7 35 3.2 0.3 2.2 0.2 4.4 0.1 6.6z"/>
			</g>
			<g id="&lt;Group&gt;">
				<path id="&lt;Path&gt;" class="s40" d="m289.2 874.5c-0.7 4.9-0.7 9.9 0.1 15.1-10-6.3-22.8-7.9-34.3-4.3-2-14.8 4.9-30.4 17-38.4 5.4 0.3 10.6 2.8 14.3 6.7 3.6 4 4.5 9.2 2.9 20.9z"/>
				<path id="&lt;Path&gt;" class="s40" d="m333.5 851.6c1.6 9 3.6 17.7 2.5 26.2-1.2 8.6-6 17.1-13.8 20.7-8.3-9.3-21.6-12.8-32.9-9.1q0.7-5.2 2.6-10.1c6.7-17.5 24.4-27.5 41.6-27.7z"/>
				<path id="&lt;Path&gt;" class="s35" d="m326.3 855.2c-6.7 15.7-20.5 28.1-37.1 34.5-9-7.7-12-21.6-6.9-32.4 14.9 1.4 30 0.6 44-2.1z"/>
			</g>
			<g id="&lt;Group&gt;">
				<g id="&lt;Group&gt;">
					<path id="&lt;Path&gt;" class="s35" d="m238 814.5c-1.6 3.4-4.3 6.6-8.1 7.9-5.3 1.7-11.3-0.9-14.7-5.1-3.3-4.1-4.4-9.5-4.8-14.7-0.3-5.1 0-10.3 2.3-15 2.3-4.6 6.8-8.5 12.2-9.1 5.5-0.6 11.4 2.8 12.2 7.9 1.7 10.3 5 19.7 0.9 28.1z"/>
					<path id="&lt;Path&gt;" class="s34" d="m352.5 817.8c1.7-8.6 13.8-15.1 22.4-16.7 8.5-1.6 18.7 2.7 21.5 11 3.5 10.7-3.1 21.6-6.5 25.9-15.2 19.4-36.4 4.1-38.7 1.3-1.3-1.7-1.3-9.1 1.3-21.5z"/>
				</g>
				<path id="&lt;Path&gt;" class="s34" d="m296.2 732.8c21.1 5.2 47.5 3.1 58.3 22 8.3 14.5 13.8 61.4-0.3 89.5-10.7 21.2-138.6 44.5-122.5-48.8 4.2-24.2 8.6-40.9 18.9-63.3 16.6-6.1 31.8-2.8 45.6 0.6z"/>
				<path id="&lt;Path&gt;" class="s35" d="m264.9 729.9c6.3-0.8 12.7 0 18.9 0.9 13.6 2 27.1 4.7 40.1 8.9 15.6 5 31.1 12.8 40.7 26.1 7.6 10.8 10.7 24.7 8.3 37.7-1.5 8.1-5.3 16.1-11.8 21.3-2.1 1.7-5.1 3.1-7.6 1.8-2.5-1.2-3.1-4.7-2.5-7.5 0.6-2.7 1.9-5.4 2-8.2 0.1-5.2-3.9-9.3-6-14-3.9-8.6-1.5-18.7 1.4-27.7-9.2 1.8-19.3-3.7-22.8-12.4-13.3 3.3-28.3-2.1-36.6-13-6.4 4.7-14.8 6.5-22.5 4.7-7.8-1.7-14.6-7-18.3-14.1 4-1.2 10.4-3.7 16.7-4.5z"/>
				<path id="&lt;Path&gt;" class="s41" d="m236.7 772.1c-5.5-4.3-8.1-12-7.9-19.7 0.2-7.7 3.1-15.2 8.1-21-8-4.4-10.5-14.4-7.4-22.9 3-8.5 11.8-14.8 20.8-14.1-1.1-9.1 4.3-19.5 13.1-24.5 8.8-5.1 20.5-4.6 28.8 1.3 4.9-8.6 11.9-13.7 19.7-14.9 7.7-1.1 16 1.7 21.4 7.3 4 4.2 7.6 10.4 13.4 10.1 3-0.1 5.6-2.1 8.4-3.5 5.7-2.8 12.7-3 18.6-0.5 5.8 2.6 10.4 7.8 12.3 13.9 4.7 1.9 9.8 6.6 12.3 11.9 2.5 5.3 3.2 11.2 5.1 16.7 2.3 6.4 6.2 12 8.9 18.2 5.7 12.7 6.1 27.5 2.5 40.9-3.7 13.5-11.1 25.7-20.5 36.1-8.5-2.9-17.1-2.7-23.7 6.5-10 13.8-14.1 12.1-15.2 11.6-1.1-0.4-1.2-1.8-1.1-2.9 0.6-7.2 1.9-14.4 3.9-21.4-7.6-11.9-9-27.5-4.6-41.4-4.5 2.9-10.5 3.5-15.5 1.6-5.1-2-9.1-6.4-10.5-11.6-13.8 5.1-30.8-0.8-38.4-13.3-12.5 7.8-28.7 8.5-39.4-1.7-4 14.3-9.3 24.6-13.1 37.3z"/>
				<g id="&lt;Group&gt;">
					<g id="&lt;Clip Group&gt;" clip-path="url(#cp8)">
						<path id="&lt;Path&gt;" class="s30" d="m266.8 662c11.2-6.2 24.5-7.2 37.4-7.6 27.8-0.8 57.7 0.7 80.2 17.2 13.1 9.7 22.4 23.6 29.7 38.1 8.7 17.5 14.9 37.2 12 56.5-3 19.3-16.5 41.1-35.8 44.4 7.3-9.6 14.2-20.2 15.7-32.2 8.8-68-20.8-78.9-28.3-75.4 0-12.6-3.4-25.8-14.8-26.3-7-0.3-20.4 0.1-26.3 4-2.7-9.3-11.7-13.8-21.3-14.2-9.6-0.3-19.1 6-22.4 15-8-3.4-16.8-5.8-25.4-4.1-8.5 1.7-16.4 8.5-17.1 17.2-3.2-13.1 5.2-26.3 16.4-32.6z"/>
					</g>
				</g>
				<path id="&lt;Path&gt;" class="s42" d="m254.3 798.4c0.6-3.1 2.6-5.3 4.5-5 1.9 0.4 3 3.2 2.4 6.4-0.6 3.1-2.6 5.3-4.5 4.9-1.9-0.3-3-3.1-2.4-6.3z"/>
				<path id="&lt;Path&gt;" class="s42" d="m303.6 809.4c1.2-3 3.6-4.8 5.4-4.1 1.8 0.7 2.3 3.7 1.1 6.6-1.1 3-3.5 4.8-5.3 4.1-1.8-0.7-2.4-3.7-1.2-6.6z"/>
				<path id="&lt;Path&gt;" class="s43" d="m328.2 786.7c-0.3-0.5-0.6-1.4-1-2-1-1.8-1.5-2.4-3.1-3.8-1.5-1.1-5.3-4.3-8.8-3.3 2.1-1.9 5.1-1.5 7.5-0.5 3 1.3 5.1 4.2 5.4 7.4q0.1 1.1 0 2.2z"/>
				<path id="&lt;Path&gt;" class="s43" d="m266 763.6c-1.9-0.9-5-0.5-6.4-0.3-1.5 0.3-4.8 0.5-6.9 1.3 2.8-2.6 7-4.2 10.8-3.3 1.6 0.4 2.9 1.5 4 2.7 0.2 0.3-1.1-0.4-1.5-0.4z"/>
				<path id="&lt;Path&gt;" class="s33" d="m275.2 803.2c-0.9 0.1-1.5 0.8-1.9 1.4-1.1 1.7-1.4 3.6-1.8 5.7-0.2 0.4 0 2.3 0.4 3.3-2.3-2.2-2.3-6-0.5-8.5 0.8-1.1 2.3-2.4 3.8-1.9z"/>
				<g id="&lt;Group&gt;">
					<path id="&lt;Path&gt;" class="s31" d="m294.2 834c-1.4 3.2-3.7 6-6.6 7.9-6 3.9-14.1 3.2-19.5-1.7-2.9-2.7-4.8-6.5-5.6-10.7-0.6-3.4-0.5-7 0.6-10.4 0.1 0.1 0.2 0.1 0.3 0.1 10.8 4 21.8 4.8 32.5 2.8q0.1 0.4 0.1 0.9c0.5 3.8-0.2 7.6-1.8 11.1z"/>
					<path id="&lt;Path&gt;" class="s32" d="m293.6 835.2c-1.5 2.7-3.5 5-5.9 6.6-6.1 4-14.2 3.3-19.5-1.7-1.5-1.3-2.7-2.9-3.6-4.8 5.2-4.5 12.5-5.2 18.9-4.4 3.4 0.5 7.1 2.2 10.1 4.3z"/>
					<path id="&lt;Path&gt;" class="s5" d="m296 822.9c-1.5 1.4-3.3 2.5-5.2 3.1-3.5 1.3-7.3 1.3-11 1.1-3.8-0.2-7.7-0.8-11.1-2.6-2.2-1.2-4.1-3.1-5.3-5.3 10.8 4 21.8 4.8 32.5 2.8q0.1 0.4 0.1 0.9z"/>
				</g>
			</g>
			<g id="&lt;Group&gt;">
				<g id="&lt;Group&gt;">
					<path id="&lt;Path&gt;" class="s34" d="m442.7 1000h-39.2c-5.6-10.3-11.9-20.8-19-30.8q-2-3-4.2-5.9-4-5.4-8.4-10.5-3.8-4.5-7.9-8.8-1-1-2.1-2.1c1.5-1.7 4.4-4 7.8-6.5 3.2-2.3 6.8-4.7 10.3-6.9 7-4.5 13.2-8.1 13.2-8.1 5.3 4.7 10 9.8 14.4 15.1 3.3 3.9 6.3 8 9.1 12.1 13.5 19.8 21.8 40.4 26 52.4z"/>
					<path id="&lt;Path&gt;" class="s35" d="m416.7 947.6c-8.3 10.2-19.6 17.8-32.2 21.6-6.3-9-13.1-17.5-20.5-25.2 5.8-4.6 11.2-9.8 16-15.5 7-4.5 13.2-8.1 13.2-8.1 9.2 8.2 16.9 17.6 23.5 27.2z"/>
				</g>
				<path id="&lt;Path&gt;" class="s44" d="m362.7 879.5c18.8 12.6 36.2 27.1 51.7 43.5-8.8 19.7-25.2 37-44.7 46.3-9.8-7.8-18.8-17.5-25.5-28.1-6.7-10.7-10.4-23.7-8-36 2.4-12.4 11.7-23.7 26.5-25.7z"/>
			</g>
		</g>
	</g>
	<g id="TEXT">
		<g id="&lt;Group&gt;">
		</g>
	</g>
</svg>