<svg version="1.2" xmlns="http://www.w3.org/2000/svg" viewBox="0 0 1000 1000" width="1000" height="1000">
	<title>2503647-ai</title>
	<defs>
		<linearGradient id="g1" x1="341.4" y1="610.6" x2="258.6" y2="478.8" gradientUnits="userSpaceOnUse">
			<stop offset="0" stop-color="#7559a5"/>
			<stop offset="1" stop-color="#955fa7"/>
		</linearGradient>
		<linearGradient id="g2" x1="351.2" y1="578" x2="316" y2="424.8" gradientUnits="userSpaceOnUse">
			<stop offset="0" stop-color="#7559a5"/>
			<stop offset="1" stop-color="#955fa7"/>
		</linearGradient>
		<linearGradient id="g3" x1="370.2" y1="631.9" x2="247.4" y2="560.8" gradientUnits="userSpaceOnUse">
			<stop offset="0" stop-color="#7559a5"/>
			<stop offset="1" stop-color="#955fa7"/>
		</linearGradient>
		<linearGradient id="g4" x1="326.9" y1="667.4" x2="250.5" y2="612" gradientUnits="userSpaceOnUse">
			<stop offset="0" stop-color="#7559a5"/>
			<stop offset="1" stop-color="#955fa7"/>
		</linearGradient>
		<linearGradient id="g5" x1="392.4" y1="729" x2="320.4" y2="729" gradientUnits="userSpaceOnUse">
			<stop offset="0" stop-color="#8554a2"/>
			<stop offset="1" stop-color="#c87ab3"/>
		</linearGradient>
		<linearGradient id="g6" x1="361.4" y1="713.1" x2="304.5" y2="696.6" gradientUnits="userSpaceOnUse">
			<stop offset="0" stop-color="#8554a2"/>
			<stop offset="1" stop-color="#c87ab3"/>
		</linearGradient>
		<linearGradient id="g7" x1="394.5" y1="696.7" x2="328.9" y2="638.2" gradientUnits="userSpaceOnUse">
			<stop offset="0" stop-color="#8554a2"/>
			<stop offset="1" stop-color="#c87ab3"/>
		</linearGradient>
		<linearGradient id="g8" x1="347" y1="688.8" x2="326.4" y2="618.8" gradientUnits="userSpaceOnUse">
			<stop offset="0" stop-color="#8554a2"/>
			<stop offset="1" stop-color="#c87ab3"/>
		</linearGradient>
		<linearGradient id="g9" x1="658.6" y1="610.6" x2="741.4" y2="478.8" gradientUnits="userSpaceOnUse">
			<stop offset="0" stop-color="#7559a5"/>
			<stop offset="1" stop-color="#955fa7"/>
		</linearGradient>
		<linearGradient id="g10" x1="648.8" y1="578" x2="684" y2="424.8" gradientUnits="userSpaceOnUse">
			<stop offset="0" stop-color="#7559a5"/>
			<stop offset="1" stop-color="#955fa7"/>
		</linearGradient>
		<linearGradient id="g11" x1="629.8" y1="631.9" x2="752.6" y2="560.8" gradientUnits="userSpaceOnUse">
			<stop offset="0" stop-color="#7559a5"/>
			<stop offset="1" stop-color="#955fa7"/>
		</linearGradient>
		<linearGradient id="g12" x1="673.1" y1="667.4" x2="749.5" y2="612" gradientUnits="userSpaceOnUse">
			<stop offset="0" stop-color="#7559a5"/>
			<stop offset="1" stop-color="#955fa7"/>
		</linearGradient>
		<linearGradient id="g13" x1="607.6" y1="729" x2="679.6" y2="729" gradientUnits="userSpaceOnUse">
			<stop offset="0" stop-color="#8554a2"/>
			<stop offset="1" stop-color="#c87ab3"/>
		</linearGradient>
		<linearGradient id="g14" x1="638.6" y1="713.1" x2="695.5" y2="696.6" gradientUnits="userSpaceOnUse">
			<stop offset="0" stop-color="#8554a2"/>
			<stop offset="1" stop-color="#c87ab3"/>
		</linearGradient>
		<linearGradient id="g15" x1="605.5" y1="696.7" x2="671.1" y2="638.2" gradientUnits="userSpaceOnUse">
			<stop offset="0" stop-color="#8554a2"/>
			<stop offset="1" stop-color="#c87ab3"/>
		</linearGradient>
		<linearGradient id="g16" x1="653" y1="688.8" x2="673.6" y2="618.8" gradientUnits="userSpaceOnUse">
			<stop offset="0" stop-color="#8554a2"/>
			<stop offset="1" stop-color="#c87ab3"/>
		</linearGradient>
		<linearGradient id="g17" x1="359.6" y1="231.2" x2="640.4" y2="231.2" gradientUnits="userSpaceOnUse">
			<stop offset="0" stop-color="#625ba7"/>
			<stop offset="1" stop-color="#6e70b4"/>
		</linearGradient>
		<linearGradient id="g18" x1="717.5" y1="479.9" x2="706.5" y2="428.3" gradientUnits="userSpaceOnUse">
			<stop offset="0" stop-color="#e9557d"/>
			<stop offset="1" stop-color="#f075ac"/>
		</linearGradient>
		<linearGradient id="g19" x1="728.5" y1="431.5" x2="728.6" y2="431.5" gradientUnits="userSpaceOnUse">
			<stop offset="0" stop-color="#f49292"/>
			<stop offset="1" stop-color="#f7aeb4"/>
		</linearGradient>
		<linearGradient id="g20" x1="808.2" y1="746.5" x2="799.3" y2="746.5" gradientUnits="userSpaceOnUse">
			<stop offset="0" stop-color="#e9557d"/>
			<stop offset="1" stop-color="#f075ac"/>
		</linearGradient>
		<linearGradient id="g21" x1="770" y1="629.6" x2="791.6" y2="726.8" gradientUnits="userSpaceOnUse">
			<stop offset="0" stop-color="#e9557d"/>
			<stop offset="1" stop-color="#f075ac"/>
		</linearGradient>
		<linearGradient id="g22" x1="769.7" y1="746.6" x2="760.8" y2="746.6" gradientUnits="userSpaceOnUse">
			<stop offset="0" stop-color="#e9557d"/>
			<stop offset="1" stop-color="#f075ac"/>
		</linearGradient>
		<linearGradient id="g23" x1="800.8" y1="630.4" x2="779.3" y2="727.2" gradientUnits="userSpaceOnUse">
			<stop offset="0" stop-color="#e9557d"/>
			<stop offset="1" stop-color="#f075ac"/>
		</linearGradient>
		<linearGradient id="g24" x1="844.2" y1="550.9" x2="814.1" y2="633.8" gradientUnits="userSpaceOnUse">
			<stop offset="0" stop-color="#61499e"/>
			<stop offset="1" stop-color="#695ea9"/>
		</linearGradient>
		<linearGradient id="g25" x1="846.1" y1="486.5" x2="812.6" y2="615.4" gradientUnits="userSpaceOnUse">
			<stop offset="0" stop-color="#543a97"/>
			<stop offset="1" stop-color="#5f499e" stop-opacity="0"/>
		</linearGradient>
		<linearGradient id="g26" x1="832.4" y1="537.8" x2="817.7" y2="569.3" gradientUnits="userSpaceOnUse">
			<stop offset="0" stop-color="#e9557d"/>
			<stop offset="1" stop-color="#f075ac"/>
		</linearGradient>
		<linearGradient id="g27" x1="728.8" y1="598.3" x2="712.5" y2="452" gradientUnits="userSpaceOnUse">
			<stop offset="0" stop-color="#f4ba2f"/>
			<stop offset="1" stop-color="#fdd343"/>
		</linearGradient>
		<linearGradient id="g28" x1="751.9" y1="522.3" x2="739.3" y2="445.9" gradientUnits="userSpaceOnUse">
			<stop offset="0" stop-color="#f68f26"/>
			<stop offset="1" stop-color="#f69225" stop-opacity="0"/>
		</linearGradient>
		<linearGradient id="g29" x1="805.1" y1="561.4" x2="783.4" y2="465" gradientUnits="userSpaceOnUse">
			<stop offset="0" stop-color="#f68f26"/>
			<stop offset="1" stop-color="#f69225" stop-opacity="0"/>
		</linearGradient>
		<linearGradient id="g30" x1="813.3" y1="516.2" x2="814.7" y2="516.2" gradientUnits="userSpaceOnUse">
			<stop offset="0" stop-color="#f68f26"/>
			<stop offset="1" stop-color="#f69225" stop-opacity="0"/>
		</linearGradient>
		<linearGradient id="g31" x1="732.5" y1="481.1" x2="745.1" y2="481.1" gradientUnits="userSpaceOnUse">
			<stop offset="0" stop-color="#f68f26"/>
			<stop offset="1" stop-color="#f69225" stop-opacity="0"/>
		</linearGradient>
		<linearGradient id="g32" x1="772.6" y1="474.5" x2="753.7" y2="420.6" gradientUnits="userSpaceOnUse">
			<stop offset="0" stop-color="#e9557d"/>
			<stop offset="1" stop-color="#f075ac"/>
		</linearGradient>
		<linearGradient id="g33" x1="228.2" y1="598.2" x2="216.7" y2="717.1" gradientUnits="userSpaceOnUse">
			<stop offset="0" stop-color="#6f53a2"/>
			<stop offset="1" stop-color="#9b70b1"/>
		</linearGradient>
		<linearGradient id="g34" x1="201.4" y1="562.3" x2="211.7" y2="562.3" gradientUnits="userSpaceOnUse">
			<stop offset="0" stop-color="#6b5ca7"/>
			<stop offset="1" stop-color="#5f50a1" stop-opacity="0"/>
		</linearGradient>
		<linearGradient id="g35" x1="189.8" y1="560.5" x2="175" y2="774.3" gradientUnits="userSpaceOnUse">
			<stop offset="0" stop-color="#6b5ca7"/>
			<stop offset="1" stop-color="#5f50a1" stop-opacity="0"/>
		</linearGradient>
		<linearGradient id="g36" x1="190.8" y1="446.1" x2="191.4" y2="461.4" gradientUnits="userSpaceOnUse">
			<stop offset="0" stop-color="#e9557d"/>
			<stop offset="1" stop-color="#f075ac"/>
		</linearGradient>
		<linearGradient id="g37" x1="165.6" y1="436.5" x2="154.5" y2="435.6" gradientUnits="userSpaceOnUse">
			<stop offset="0" stop-color="#e9557d"/>
			<stop offset="1" stop-color="#f075ac"/>
		</linearGradient>
		<linearGradient id="g38" x1="185.7" y1="417.3" x2="192.5" y2="417.3" gradientUnits="userSpaceOnUse">
			<stop offset="0" stop-color="#e9557d"/>
			<stop offset="1" stop-color="#f075ac"/>
		</linearGradient>
		<linearGradient id="g39" x1="175.2" y1="463.5" x2="151.5" y2="429.1" gradientUnits="userSpaceOnUse">
			<stop offset="0" stop-color="#e9557d"/>
			<stop offset="1" stop-color="#f075ac"/>
		</linearGradient>
		<linearGradient id="g40" x1="121.9" y1="566.1" x2="114" y2="459.2" gradientUnits="userSpaceOnUse">
			<stop offset="0" stop-color="#f4ba2f"/>
			<stop offset="1" stop-color="#fdd343"/>
		</linearGradient>
		<linearGradient id="g41" x1="154.3" y1="571.1" x2="192.9" y2="406.6" gradientUnits="userSpaceOnUse">
			<stop offset="0" stop-color="#f4ba2f"/>
			<stop offset="1" stop-color="#fdd343"/>
		</linearGradient>
		<linearGradient id="g42" x1="104.6" y1="564.6" x2="167.6" y2="433.1" gradientUnits="userSpaceOnUse">
			<stop offset="0" stop-color="#f68f26"/>
			<stop offset="1" stop-color="#f69225" stop-opacity="0"/>
		</linearGradient>
		<linearGradient id="g43" x1="203.8" y1="584.6" x2="113.9" y2="419.1" gradientUnits="userSpaceOnUse">
			<stop offset="0" stop-color="#f68f26"/>
			<stop offset="1" stop-color="#f69225" stop-opacity="0"/>
		</linearGradient>
		<linearGradient id="g44" x1="146.2" y1="527.2" x2="167.3" y2="576.2" gradientUnits="userSpaceOnUse">
			<stop offset="0" stop-color="#e9557d"/>
			<stop offset="1" stop-color="#f075ac"/>
		</linearGradient>
		<linearGradient id="g45" x1="237.3" y1="538.1" x2="224.9" y2="604.1" gradientUnits="userSpaceOnUse">
			<stop offset="0" stop-color="#e9557d"/>
			<stop offset="1" stop-color="#f075ac"/>
		</linearGradient>
		<linearGradient id="g46" x1="288.6" y1="558.7" x2="293.4" y2="738.5" gradientUnits="userSpaceOnUse">
			<stop offset="0" stop-color="#6f53a2"/>
			<stop offset="1" stop-color="#9b70b1"/>
		</linearGradient>
		<linearGradient id="g47" x1="279.8" y1="582.8" x2="312.4" y2="853.4" gradientUnits="userSpaceOnUse">
			<stop offset="0" stop-color="#6b5ca7"/>
			<stop offset="1" stop-color="#5f50a1" stop-opacity="0"/>
		</linearGradient>
		<linearGradient id="g48" x1="317.1" y1="578.3" x2="343" y2="793.5" gradientUnits="userSpaceOnUse">
			<stop offset="0" stop-color="#6b5ca7"/>
			<stop offset="1" stop-color="#5f50a1" stop-opacity="0"/>
		</linearGradient>
		<linearGradient id="g49" x1="407.2" y1="535.5" x2="439.9" y2="469.3" gradientUnits="userSpaceOnUse">
			<stop offset="0" stop-color="#e9557d"/>
			<stop offset="1" stop-color="#f075ac"/>
		</linearGradient>
		<linearGradient id="g50" x1="374.2" y1="511.2" x2="366.8" y2="511.2" gradientUnits="userSpaceOnUse">
			<stop offset="0" stop-color="#881531"/>
			<stop offset="1" stop-color="#881531" stop-opacity="0"/>
		</linearGradient>
		<linearGradient id="g51" x1="322.6" y1="489.9" x2="339.8" y2="442.6" gradientUnits="userSpaceOnUse">
			<stop offset="0" stop-color="#e9557d"/>
			<stop offset="1" stop-color="#f075ac"/>
		</linearGradient>
		<linearGradient id="g52" x1="303.6" y1="611.2" x2="318.9" y2="471" gradientUnits="userSpaceOnUse">
			<stop offset="0" stop-color="#f4ba2f"/>
			<stop offset="1" stop-color="#fdd343"/>
		</linearGradient>
		<linearGradient id="g53" x1="366.2" y1="567.4" x2="401.4" y2="511.4" gradientUnits="userSpaceOnUse">
			<stop offset="0" stop-color="#f68f26"/>
			<stop offset="1" stop-color="#f69225" stop-opacity="0"/>
		</linearGradient>
		<linearGradient id="g54" x1="256.7" y1="624.7" x2="227.7" y2="464.9" gradientUnits="userSpaceOnUse">
			<stop offset="0" stop-color="#f4ba2f"/>
			<stop offset="1" stop-color="#fdd343"/>
		</linearGradient>
		<linearGradient id="g55" x1="323.6" y1="514" x2="263.1" y2="454.7" gradientUnits="userSpaceOnUse">
			<stop offset="0" stop-color="#f68f26"/>
			<stop offset="1" stop-color="#f69225" stop-opacity="0"/>
		</linearGradient>
		<linearGradient id="g56" x1="236.4" y1="538.4" x2="297.3" y2="582.1" gradientUnits="userSpaceOnUse">
			<stop offset="0" stop-color="#e9557d"/>
			<stop offset="1" stop-color="#f075ac"/>
		</linearGradient>
		<linearGradient id="g57" x1="327.5" y1="459.7" x2="327.9" y2="458.5" gradientUnits="userSpaceOnUse">
			<stop offset="0" stop-color="#e9557d"/>
			<stop offset="1" stop-color="#f075ac"/>
		</linearGradient>
		<linearGradient id="g58" x1="324.2" y1="459.4" x2="324.2" y2="459.3" gradientUnits="userSpaceOnUse">
			<stop offset="0" stop-color="#e9557d"/>
			<stop offset="1" stop-color="#f075ac"/>
		</linearGradient>
	</defs>
	<style>
		.s0 { opacity: .3;mix-blend-mode: overlay;fill: #ffffff } 
		.s1 { opacity: .2;fill: #c9a8f4 } 
		.s2 { fill: url(#g1) } 
		.s3 { opacity: .6;fill: none;stroke: #6442ce;stroke-width: 2.5 } 
		.s4 { fill: url(#g2) } 
		.s5 { fill: url(#g3) } 
		.s6 { fill: url(#g4) } 
		.s7 { fill: url(#g5) } 
		.s8 { fill: url(#g6) } 
		.s9 { fill: url(#g7) } 
		.s10 { fill: url(#g8) } 
		.s11 { fill: none;stroke: #ea8bef;stroke-linecap: round;stroke-width: 2.1 } 
		.s12 { fill: url(#g9) } 
		.s13 { fill: url(#g10) } 
		.s14 { fill: url(#g11) } 
		.s15 { fill: url(#g12) } 
		.s16 { fill: url(#g13) } 
		.s17 { fill: url(#g14) } 
		.s18 { fill: url(#g15) } 
		.s19 { fill: url(#g16) } 
		.s20 { fill: url(#g17) } 
		.s21 { fill: #ffffff } 
		.s22 { fill: #6545ba } 
		.s23 { opacity: .6;fill: #e3dce5 } 
		.s24 { opacity: .7;fill: #cac2ce } 
		.s25 { fill: #e83867 } 
		.s26 { fill: #a15edd } 
		.s27 { opacity: .6;fill: #cac2ce } 
		.s28 { fill: #5640a8 } 
		.s29 { fill: url(#g18) } 
		.s30 { fill: #ed4c76 } 
		.s31 { fill: url(#g19);stroke: #04006a;stroke-width: .8 } 
		.s32 { fill: #4f349b } 
		.s33 { fill: url(#g20) } 
		.s34 { fill: url(#g21) } 
		.s35 { fill: url(#g22) } 
		.s36 { fill: url(#g23) } 
		.s37 { fill: #ced5e0;stroke: #04006a;stroke-width: .8 } 
		.s38 { fill: #ba2744 } 
		.s39 { fill: url(#g24) } 
		.s40 { fill: url(#g25) } 
		.s41 { fill: url(#g26) } 
		.s42 { fill: url(#g27) } 
		.s43 { fill: url(#g28) } 
		.s44 { fill: none;stroke: #04006a;stroke-width: .8 } 
		.s45 { fill: url(#g29) } 
		.s46 { fill: url(#g30) } 
		.s47 { fill: #ebeff7 } 
		.s48 { fill: url(#g31) } 
		.s49 { fill: url(#g32) } 
		.s50 { fill: #d8dde5 } 
		.s51 { fill: #6149b7 } 
		.s52 { fill: #f0668f } 
		.s53 { fill: url(#g33) } 
		.s54 { fill: #f2f2f7 } 
		.s55 { fill: url(#g34) } 
		.s56 { fill: url(#g35) } 
		.s57 { fill: #7938e0 } 
		.s58 { fill: #5f3bb7 } 
		.s59 { fill: url(#g36) } 
		.s60 { fill: url(#g37) } 
		.s61 { fill: url(#g38) } 
		.s62 { fill: url(#g39) } 
		.s63 { fill: url(#g40) } 
		.s64 { fill: url(#g41) } 
		.s65 { fill: url(#g42) } 
		.s66 { fill: url(#g43) } 
		.s67 { fill: url(#g44) } 
		.s68 { fill: #f28941 } 
		.s69 { fill: url(#g45) } 
		.s70 { fill: #f26893 } 
		.s71 { fill: url(#g46) } 
		.s72 { fill: url(#g47) } 
		.s73 { fill: url(#g48) } 
		.s74 { fill: #a02240 } 
		.s75 { fill: url(#g49) } 
		.s76 { fill: url(#g50) } 
		.s77 { fill: url(#g51) } 
		.s78 { fill: url(#g52) } 
		.s79 { fill: url(#g53) } 
		.s80 { fill: url(#g54) } 
		.s81 { fill: url(#g55) } 
		.s82 { fill: url(#g56) } 
		.s83 { fill: url(#g57) } 
		.s84 { fill: url(#g58) } 
		.s85 { opacity: .7;fill: #d054e2 } 
		.s86 { fill: #804ece } 
	</style>
	<g id="BACKGROUND">
		<path id="&lt;Path&gt;" class="s0" d="m1000 1000h-1000v-1000h1000z"/>
	</g>
	<g id="OBJECTS">
		<g id="&lt;Group&gt;">
			<g id="&lt;Group&gt;">
				<path id="&lt;Path&gt;" class="s1" d="m223.8 779.2c-4.7 13.2-36-5.6-60.6 2.8-24.6 8.5-50.4 14.3-52.3-5.6-1.8-19.9 41.1-27.1 64.2-28.5 32-1.8 53.3 18.2 48.7 31.3z"/>
				<path id="&lt;Path&gt;" class="s1" d="m374.3 757.5c8.7 23.9-22.7 21.4-41.3 16.9-18.5-4.5-35.9 22.7-52 11.2-16.1-11.6-0.8-15.7-0.8-15.7 14.5-14.5 85.5-36.4 94.1-12.4z"/>
				<path id="&lt;Path&gt;" class="s1" d="m792.4 793.6c-12-14-49.2-2.5-50-17.3-0.8-14.9 46.8-28.3 57.4-21.5 73.1 47.1 4.5 52.8-7.4 38.8z"/>
				<path id="&lt;Path&gt;" class="s1" d="m632.2 748.2c44.5 53.7-1.7 85-38.4 63.6-36.8-21.5-225 14.8-236.2 0-11.1-14.9 37.5-63.2 37.5-63.2 0 0 192.5-54.1 237.1-0.4z"/>
				<path id="&lt;Path&gt;" class="s1" d="m356.6 619.8c-49.5 35.7-132.1 83.9-219.1-26.2-82-103.9-17-333 128.4-373.9 142.1-39.9 244.4 168.3 297 99.4 52.6-68.8 113.9-184.1 213.3-109.2 99.4 74.8 212 369.5 9.1 470.6-143.5 71.5-143.8-265.8-428.7-60.7z"/>
			</g>
			<g id="&lt;Group&gt;">
				<g id="&lt;Group&gt;">
					<g id="&lt;Group&gt;">
						<path id="&lt;Path&gt;" class="s2" d="m402.5 593.6c-76.7 2.4-38.4-43.7-77.7-61.9-39.3-18.1-10.4-58.1-44.4-81.3-33.9-23.2-17.5-56.8-3.3-56.8 14.1 0 11.4 19.1 36.3 28.5 24.9 9.5 28.6 29 25.5 45.4-3 16.5 2 36 24.9 37 22.9 1 33.6 57.5 33.6 57.5l2.7-57.5z"/>
						<path id="&lt;Path&gt;" class="s3" d="m276.4 414.7c0 0 5.4 14.5 25.2 25.6 19.8 11.1 7.7 42.7 29.9 64.2 22.2 21.5 38.8 34.9 45.7 68.6"/>
					</g>
					<g id="&lt;Group&gt;">
						<path id="&lt;Path&gt;" class="s4" d="m411.5 588.3c-73.2-23-21.8-53.9-53-84-31.2-30 9.2-58.3-15.2-91.4-24.4-33.1 2.2-59.4 15.5-54.8 13.3 4.7 4.5 21.9 24.9 39 20.4 17 17.5 36.7 9.2 51.2-8.3 14.6-9.9 34.7 11.4 43.1 21.2 8.5 12.8 65.4 12.8 65.4l21.4-53.4z"/>
						<path id="&lt;Path&gt;" class="s3" d="m351.2 377.9c0 0 0.3 15.4 15.4 32.4 15.1 17-6.7 42.9 7.2 70.5 13.9 27.6 25.1 45.8 20.5 79.8"/>
					</g>
					<g id="&lt;Group&gt;">
						<path id="&lt;Path&gt;" class="s5" d="m436.3 610.1c-66.7 37.8-54.3-20.8-97.5-18.6-43.3 2.3-36.3-46.6-77.2-51.3-40.8-4.7-41.9-42.1-29.4-48.7 12.5-6.6 19 11.6 45.4 8.4 26.4-3.3 38.8 12.3 43.8 28.2 5 16 18.5 30.9 39.2 21.2 20.7-9.8 56.5 35.2 56.5 35.2l-24.4-52.1z"/>
						<path id="&lt;Path&gt;" class="s3" d="m241.5 510.5c0 0 11.4 10.3 34.2 10.9 22.7 0.6 26.7 34.2 56.3 42.9 29.7 8.7 50.7 12.9 72.4 39.4"/>
					</g>
					<g id="&lt;Group&gt;">
						<path id="&lt;Path&gt;" class="s6" d="m447.5 679.9c-66.8 37.8-54.3-20.8-97.6-18.6-43.2 2.3-36.3-46.6-77.1-51.3-40.9-4.7-42-42.2-29.5-48.7 12.5-6.6 19.1 11.6 45.5 8.3 26.4-3.2 38.7 12.3 43.7 28.3 5 16 18.6 30.9 39.3 21.1 20.7-9.7 56.5 35.3 56.5 35.3l-24.4-52.2z"/>
						<path id="&lt;Path&gt;" class="s3" d="m252.6 580.3c0 0 11.5 10.3 34.2 10.9 22.7 0.6 26.7 34.2 56.4 42.9 29.6 8.7 50.6 12.8 72.3 39.4"/>
					</g>
				</g>
				<g id="&lt;Group&gt;">
					<path id="&lt;Path&gt;" class="s7" d="m376.9 758.1c0 0-86-1.1-91.7-16-5.8-14.9 61.9-14.9 91.7 16z"/>
					<path id="&lt;Path&gt;" class="s8" d="m308.1 727.2c-37.8-4.6-37.8-44.7 5.7-29.8 43.6 14.9 63.1 60.7 63.1 60.7 0 0-31-26.3-68.8-30.9z"/>
					<path id="&lt;Path&gt;" class="s9" d="m376.9 758.1c-18.4-30.9-43.6-59.6-68.8-79.1-25.2-19.5-27.5-42.4-16.1-49.3 11.5-6.8 26.4 2.3 45.9 26.4 19.5 24.1 48.1 90.6 48.1 90.6z"/>
					<path id="&lt;Path&gt;" class="s10" d="m376.9 758.1c0 0-12.6-66.5-40.1-123.7-25.8-53.8-7.1-81.4 13.3-67.7 24.4 16.5 38.7 88.1 35.2 181.9z"/>
					<g id="&lt;Group&gt;" style="opacity: .6">
						<path id="&lt;Path&gt;" class="s11" d="m300.6 741.5c0 0 32.1-0.6 68.2 13.5"/>
						<path id="&lt;Path&gt;" class="s11" d="m297.2 704.8c0 0 44.3 7.4 74.3 50.2"/>
						<path id="&lt;Path&gt;" class="s11" d="m300.6 648.6c0 0 45.9 24.1 75.7 102.1"/>
						<path id="&lt;Path&gt;" class="s11" d="m341.9 583.3c16.6 40.7 30.5 84.8 41.9 140.4l-0.6 0.6"/>
					</g>
				</g>
				<g id="&lt;Group&gt;">
					<g id="&lt;Group&gt;">
						<path id="&lt;Path&gt;" class="s12" d="m599.9 504.5l2.7 57.5c0 0 10.7-56.5 33.6-57.5 22.9-1 27.9-20.5 24.9-37-3.1-16.4 0.6-35.9 25.5-45.4 24.9-9.4 22.2-28.5 36.3-28.5 14.2 0 30.6 33.6-3.3 56.8-34 23.2-5.1 63.2-44.4 81.3-39.3 18.2-1 64.3-77.7 61.9z"/>
						<path id="&lt;Path&gt;" class="s3" d="m622.8 573.1c6.9-33.7 23.5-47.1 45.7-68.6 22.2-21.5 10.1-53.1 29.9-64.2 19.8-11.1 25.2-25.6 25.2-25.6"/>
					</g>
					<g id="&lt;Group&gt;">
						<path id="&lt;Path&gt;" class="s13" d="m561.5 503.4l21.4 53.4c0 0-8.4-56.9 12.8-65.4 21.3-8.4 19.7-28.5 11.4-43.1-8.3-14.5-11.2-34.2 9.2-51.2 20.4-17.1 11.6-34.3 24.9-39 13.3-4.6 39.9 21.7 15.5 54.8-24.4 33.1 16 61.4-15.2 91.4-31.2 30.1 20.2 61-53 84z"/>
						<path id="&lt;Path&gt;" class="s3" d="m605.7 560.6c-4.6-34 6.6-52.2 20.5-79.8 13.9-27.6-7.9-53.5 7.2-70.5 15.1-17 15.4-32.4 15.4-32.4"/>
					</g>
					<g id="&lt;Group&gt;">
						<path id="&lt;Path&gt;" class="s14" d="m607.3 532.4l-24.4 52.1c0 0 35.8-45 56.5-35.2 20.7 9.7 34.2-5.2 39.2-21.2 5-15.9 17.4-31.5 43.8-28.2 26.4 3.2 32.9-15 45.4-8.4 12.5 6.6 11.4 44-29.4 48.7-40.9 4.7-33.9 53.6-77.2 51.3-43.2-2.2-30.8 56.4-97.5 18.6z"/>
						<path id="&lt;Path&gt;" class="s3" d="m595.6 603.7c21.7-26.5 42.7-30.7 72.4-39.4 29.6-8.7 33.6-42.3 56.3-42.9 22.8-0.6 34.2-10.9 34.2-10.9"/>
					</g>
					<g id="&lt;Group&gt;">
						<path id="&lt;Path&gt;" class="s15" d="m596.1 602.1l-24.4 52.2c0 0 35.8-45 56.5-35.3 20.7 9.8 34.3-5.1 39.3-21.1 5-16 17.3-31.5 43.7-28.3 26.4 3.3 33-14.9 45.5-8.3 12.5 6.5 11.4 44-29.5 48.7-40.8 4.7-33.9 53.6-77.1 51.3-43.3-2.2-30.8 56.4-97.6 18.6z"/>
						<path id="&lt;Path&gt;" class="s3" d="m584.5 673.5c21.7-26.6 42.7-30.7 72.3-39.4 29.7-8.7 33.7-42.3 56.4-42.9 22.7-0.6 34.2-10.9 34.2-10.9"/>
					</g>
				</g>
				<path id="&lt;Path&gt;" class="s16" d="m623.1 758.1c0 0 86-1.1 91.7-16 5.8-14.9-61.9-14.9-91.7 16z"/>
				<path id="&lt;Path&gt;" class="s17" d="m623.1 758.1c0 0 19.5-45.8 63.1-60.7 43.5-14.9 43.5 25.2 5.7 29.8-37.8 4.6-68.8 30.9-68.8 30.9z"/>
				<path id="&lt;Path&gt;" class="s18" d="m614 746.7c0 0 28.6-66.5 48.1-90.6 19.5-24.1 34.4-33.2 45.9-26.4 11.4 6.9 9.1 29.8-16.1 49.3-25.2 19.5-50.4 48.2-68.8 79.1z"/>
				<path id="&lt;Path&gt;" class="s19" d="m614.7 748.6c-3.5-93.8 10.9-165.4 35.2-181.9 20.4-13.7 39.1 13.9 13.3 67.7-27.5 57.2-40.1 123.7-40.1 123.7z"/>
				<g id="&lt;Group&gt;" style="opacity: .6">
					<path id="&lt;Path&gt;" class="s11" d="m699.4 741.5c0 0-32.1-0.6-68.2 13.5"/>
					<path id="&lt;Path&gt;" class="s11" d="m702.8 704.8c0 0-44.3 7.4-74.3 50.2"/>
					<path id="&lt;Path&gt;" class="s11" d="m699.4 648.6c0 0-45.9 24.1-75.7 102.1"/>
					<path id="&lt;Path&gt;" class="s11" d="m616.8 724.3l-0.6-0.6c11.4-55.6 25.3-99.7 41.9-140.4"/>
				</g>
			</g>
			<g id="&lt;Group&gt;">
				<path id="&lt;Path&gt;" class="s20" d="m609.2 762.3h-218.4c-17.1 0-31.2-14.1-31.2-31.2v-464.7c0-17.1 14.1-31.2 31.2-31.2h218.4c17.1 0 31.2 14.1 31.2 31.2v464.7c0 17.1-14.1 31.2-31.2 31.2z"/>
				<path id="&lt;Path&gt;" class="s21" d="m629.9 272.3v452.7c0 14.4-11.8 26.3-26.3 26.3h-207c-14.5 0-26.3-11.9-26.3-26.3v-452.7c0-14.5 11.8-26.3 26.3-26.3h55.9c2.2 0 4.1 1.3 4.9 3.3l4 9.8c0.8 1.8 2.5 3 4.5 3h77.7c1.9 0 3.7-1.1 4.5-2.9l3.7-8.6c1.3-2.8 4-4.6 7.1-4.6h44.7c14.5 0 26.3 11.8 26.3 26.3z"/>
				<path id="&lt;Path&gt;" class="s22" d="m629.9 271.9v9.7h-259.6v-9.7c0-14.4 11.8-26.2 26.3-26.2h55.9c2.2 0 4.1 1.3 4.9 3.3l4 9.7c0.8 1.9 2.5 3 4.5 3h77.7c1.9 0 3.7-1.1 4.5-2.9l3.7-8.5c1.3-2.8 4-4.6 7.1-4.6h44.7c14.5 0 26.3 11.8 26.3 26.2z"/>
				<g id="&lt;Group&gt;">
					<path id="&lt;Path&gt;" class="s23" d="m545.4 438.8c0 13.9-6.3 26.3-16.1 34.6-7.9 6.7-18.1 10.8-29.3 10.8-11 0-21.1-4-29-10.5-10-8.3-16.4-20.9-16.4-34.9 0-25.1 20.3-45.4 45.4-45.4 25.1 0 45.4 20.3 45.4 45.4z"/>
					<path id="&lt;Path&gt;" class="s24" d="m529.3 473.4c-7.9 6.7-18.1 10.8-29.3 10.8-11 0-21.1-4-29-10.5 0.9-8.6 3.2-16.3 6.6-22.7 2.3-4.1 7.3-5.8 11.6-3.8 3.3 1.5 7 2.4 10.8 2.4 3.9 0 7.7-0.9 11-2.5 4.3-2 9.4-0.4 11.6 3.8 3.5 6.3 5.8 14 6.7 22.5z"/>
					<path id="&lt;Path&gt;" class="s24" d="m518.9 424.1c0 10.4-8.5 18.9-18.9 18.9-10.4 0-18.9-8.5-18.9-18.9 0-10.4 8.5-18.9 18.9-18.9 10.4 0 18.9 8.5 18.9 18.9z"/>
				</g>
				<g id="&lt;Group&gt;">
					<g id="&lt;Group&gt;">
						<path id="&lt;Path&gt;" class="s25" d="m601.3 630.3c0 15.1-12.2 27.4-27.4 27.4-15.1 0-27.4-12.3-27.4-27.4 0-15.2 12.3-27.4 27.4-27.4 15.2 0 27.4 12.2 27.4 27.4z"/>
						<path id="&lt;Path&gt;" class="s21" d="m578.9 619.2c0 0 2.5-7.6 4.5-7.9 2.1-0.3 9.7 4.9 8.4 13.2-1.3 8.4-12.8 20.4-21.7 21.2-9 0.7-15-4.8-14.2-6.7 0.9-1.9 4.5-6.6 7.8-5 3.2 1.6 6 5 9.7 2.1 3.8-2.9 10-8.1 10.4-11 0.4-2.8-4.9-3-4.9-5.9z"/>
					</g>
					<g id="&lt;Group&gt;">
						<path id="&lt;Path&gt;" class="s26" d="m453.6 630.3c0 15.1-12.2 27.4-27.4 27.4-15.1 0-27.4-12.3-27.4-27.4 0-15.2 12.3-27.4 27.4-27.4 15.2 0 27.4 12.2 27.4 27.4z"/>
						<path id="&lt;Path&gt;" class="s21" d="m431.2 619.2c0 0 2.5-7.6 4.5-7.9 2.1-0.3 9.7 4.9 8.4 13.2-1.3 8.4-12.8 20.4-21.7 21.2-9 0.7-15-4.8-14.1-6.7 0.8-1.9 4.4-6.6 7.7-5 3.2 1.6 6 5 9.8 2.1 3.7-2.9 9.9-8.1 10.3-11 0.4-2.8-4.9-3-4.9-5.9z"/>
					</g>
					<g id="&lt;Group&gt;">
						<path id="&lt;Path&gt;" class="s23" d="m474.6 630.3c0 2.3-1.9 4.2-4.2 4.2-2.3 0-4.2-1.9-4.2-4.2 0-2.3 1.9-4.2 4.2-4.2 2.3 0 4.2 1.9 4.2 4.2z"/>
						<path id="&lt;Path&gt;" class="s23" d="m493.1 630.5c0 2.3-1.9 4.1-4.2 4.1-2.3 0-4.2-1.8-4.2-4.1 0-2.4 1.9-4.2 4.2-4.2 2.3 0 4.2 1.8 4.2 4.2z"/>
						<path id="&lt;Path&gt;" class="s23" d="m511.6 630.3c0 2.3-1.9 4.2-4.2 4.2-2.3 0-4.2-1.9-4.2-4.2 0-2.3 1.9-4.2 4.2-4.2 2.3 0 4.2 1.9 4.2 4.2z"/>
						<path id="&lt;Path&gt;" class="s23" d="m530.1 630.5c0 2.3-1.9 4.1-4.2 4.1-2.3 0-4.2-1.8-4.2-4.1 0-2.4 1.9-4.2 4.2-4.2 2.3 0 4.2 1.8 4.2 4.2z"/>
					</g>
				</g>
				<g id="&lt;Group&gt;">
					<path id="&lt;Path&gt;" class="s27" d="m531.9 521.9h-69.9c-5.5 0-9.9-4.5-9.9-10 0-5.5 4.4-9.9 9.9-9.9h69.9c5.5 0 9.9 4.4 9.9 9.9 0 5.5-4.4 10-9.9 10z"/>
					<path id="&lt;Path&gt;" class="s23" d="m459.9 557.8h-20.2c-1.6 0-3-1.3-3-3v-0.2c0-1.7 1.4-3.1 3-3.1h20.2c1.6 0 3 1.4 3 3.1v0.2c0 1.7-1.4 3-3 3z"/>
					<path id="&lt;Path&gt;" class="s23" d="m495.8 557.8h-20.1c-1.7 0-3-1.3-3-3v-0.2c0-1.7 1.3-3.1 3-3.1h20.1c1.7 0 3.1 1.4 3.1 3.1v0.2c0 1.7-1.4 3-3.1 3z"/>
					<path id="&lt;Path&gt;" class="s23" d="m531.5 557.8h-20.2c-1.7 0-3-1.3-3-3v-0.2c0-1.7 1.3-3.1 3-3.1h20.2c1.6 0 3 1.4 3 3.1v0.2c0 1.7-1.4 3-3 3z"/>
					<path id="&lt;Path&gt;" class="s23" d="m567.4 557.8h-20.1c-1.7 0-3-1.3-3-3v-0.2c0-1.7 1.3-3.1 3-3.1h20.1c1.7 0 3 1.4 3 3.1v0.2c0 1.7-1.3 3-3 3z"/>
					<path id="&lt;Path&gt;" class="s23" d="m571.3 539h-142.4c-2.8 0-5.1-2.3-5.1-5.1 0-2.8 2.3-5.1 5.1-5.1h142.4c2.8 0 5.1 2.3 5.1 5.1 0 2.8-2.3 5.1-5.1 5.1z"/>
				</g>
				<path id="&lt;Path&gt;" class="s28" d="m629.9 306.1h-259.4v-24.5h259.4z"/>
				<path id="&lt;Path&gt;" class="s23" d="m543.1 722.3h-92.5c-4.3 0-7.9-3.5-7.9-7.9 0-4.3 3.6-7.8 7.9-7.8h92.5c4.4 0 7.9 3.5 7.9 7.8 0 4.4-3.5 7.9-7.9 7.9z"/>
			</g>
			<g id="&lt;Group&gt;">
				<path id="&lt;Path&gt;" class="s29" d="m727 447.7l1.6 9.8h-0.8l-5.9 1.2-2 0.4c-1.1-6.8-2.8-9.4-5.7-16.1-1.1-2.4-1.8-5.6-2.2-8.7-0.8-5.1-0.9-9.9-0.5-10.1 0.5-0.3 3 12 3 12 0 0-2-16.6-0.9-16.6 1.1 0 3.2 14.3 3.3 15.2-0.1-0.9-1.6-17.1-0.5-17.4 1-0.3 4.5 16.9 4.6 17.4-0.1-0.5-1.7-14.8-0.8-15 0.9-0.1 1.8 6 2.7 10.7 0.5 2.5 1.4 4.9 1.4 4.9 2.7-3.8 1.1-10.1 1.9-10.1 0.8 0 2.4 5.7 2.4 9q0 0.5 0 1.2 0 0 0 0 0 0.2-0.1 0.5 0 1-0.2 2.2c-0.5 4-1.3 9.5-1.3 9.5z"/>
				<path id="&lt;Path&gt;" class="s30" d="m720.9 451.6c0 3.6 1 7.1 1 7.1l-2 0.4c-1.1-6.8-2.8-9.4-5.7-16.1-1.1-2.4-1.8-5.6-2.2-8.7 0.7 2.8 2.2 7.4 4 9.7 2.7 3.5 4.9 4.1 4.9 7.6z"/>
				<path id="&lt;Path&gt;" class="s31" d="m728.6 435.5q0 0.2-0.1 0.5 0-0.3 0.1-0.5z"/>
				<path id="&lt;Path&gt;" class="s30" d="m728.6 457.5h-0.8l-5.9 1.2 5.8-1.3c0 0-3-8.5-2.5-11 0.5-2 2.4-5 3.1-8.2-0.5 4-1.3 9.5-1.3 9.5z"/>
				<path id="&lt;Path&gt;" class="s32" d="m811.6 747.2l0.8 26.5h-1.2l-1.4-13.1c0 0 0.6 9.9-6.8 15.3-9.6 6.8-12.8-0.7-10.1-4.9 4.3-6.9 6.5-13.1 7.6-24.3 0 0 5.6-4.1 11.1 0.5z"/>
				<path id="&lt;Path&gt;" class="s33" d="m801.3 750c3.9 1.1 6.9 0.2 6.9 0.2 0 0-0.7 13.7-6 17.5-5.8 4.1-4.3-1.9-3.3-4.1 2.2-4.9 2.4-13.6 2.4-13.6z"/>
				<path id="&lt;Path&gt;" class="s34" d="m787.4 612c8.5-3.2 25.9-8.8 24 1.8-2.4 13.9 0 37.9-1.1 56.2-1 18.3 1.1 77.2 1.1 77.2-3.1 1.9-5.9 1.8-7.9 1.3-1.8-0.4-3-1.3-3-1.3-3.5-16.1-10.3-82.1-11.7-94.1-1.4-12-5.7-39.3-5.7-39.3 0 0 1.7-0.8 4.3-1.8z"/>
				<path id="&lt;Path&gt;" class="s32" d="m773.1 747.4l0.8 26.4h-1.2l-1.4-13.1c0 0 0.7 10-6.8 15.3-9.5 6.8-12.8-0.7-10.1-4.9 4.4-6.8 6.6-13.1 7.7-24.3 0 0 5.6-4.1 11 0.6z"/>
				<path id="&lt;Path&gt;" class="s35" d="m762.9 750.1c3.8 1.1 6.8 0.3 6.8 0.3 0 0-0.6 13.6-6 17.4-5.7 4.1-4.3-1.8-3.3-4.1 2.2-4.9 2.5-13.6 2.5-13.6z"/>
				<path id="&lt;Path&gt;" class="s36" d="m771.9 625.1c-0.4 13.7 0.8 31 0 45.1-1.1 18.2 1.1 77.2 1.1 77.2-2 1.2-3.9 1.5-5.5 1.5-0.9 0-1.7-0.1-2.5-0.3-1.8-0.4-2.9-1.2-2.9-1.2-3.6-16.1-10.4-82.2-11.8-94.2-1.3-12-5.7-39.2-5.7-39.2 0 0 1.7-0.8 4.4-1.8 8.4-3.3 25.8-8.8 24 1.8-0.6 3.2-0.9 7-1.1 11.1z"/>
				<path id="&lt;Path&gt;" class="s30" d="m767.5 748.9c2.5-8.6 2.5-23.3 0-37.3-3.3-18.3-0.5-28.3 0-44.4 0.6-16.1-3.8-38.2-3.8-38.2l8.2-3.9c-0.4 13.7 0.8 31 0 45.1-1.1 18.2 1.1 77.2 1.1 77.2-2 1.2-3.9 1.5-5.5 1.5z"/>
				<path id="&lt;Path&gt;" class="s30" d="m805.9 748.9c2.5-8.6 2.6-23.3 0.1-37.3-3.3-18.3-0.6-28.3 0-44.4 0.5-16.1-3.8-38.2-3.8-38.2l8.2-3.9c-0.5 13.7 0.8 31-0.1 45.1-1 18.2 1.1 77.2 1.1 77.2-2 1.2-3.8 1.5-5.5 1.5z"/>
				<path id="&lt;Path&gt;" class="s37" d=""/>
				<path id="&lt;Path&gt;" class="s38" d="m756.7 452.3c0 0 2-8.6-1.1-29.5-3-20.7-0.6-34.2 7.6-30.6 0 0 0-6.3 9.5-8.2 9.5-1.9 20.3 5.3 22.8 18.9 2.4 13.7 4.1 41.2 8.4 49.4 4.4 8.2-47.2 0-47.2 0z"/>
				<path id="&lt;Path&gt;" class="s39" d="m815.6 589.3c-0.5 18.8-1.4 38-1.4 38-38.5 13.7-69.9 1.7-69.9 1.7-2.4-19.4-3.2-47.6 1.6-67.1 3-12.2 5.4-20.6 5.4-20.6l61.9-2.2c2.6 10.8 2.8 31.8 2.4 50.2z"/>
				<path id="&lt;Path&gt;" class="s40" d="m815.6 589.3c-6-2.9-14.5-8.1-25.3-17.2-19-16-37.7-12.3-44.4-10.2 3-12.2 5.4-20.6 5.4-20.6l61.9-2.2c2.6 10.8 2.8 31.8 2.4 50.2z"/>
				<path id="&lt;Path&gt;" class="s41" d="m814.6 551.1c0 0 0.3 2.4-1.1 6.5-0.9 2.6-3.2 4.7-4.9 7.1-0.7 0.9-0.9 2-1 2.9-0.1 0.5-0.1 1.1-0.1 1.5 0 1.6 2.7 7.1 1.3 6.5-0.9-0.3-2.6-4-3.2-6.2-0.8-2.7 0.2-7.5 0.2-7.7 0 0.1-0.5 1-1 3-0.3 1.2-0.6 3.1-0.3 4.4 1.1 4.6 2.7 8.2 1.9 8.2-0.8 0-2.3-3-3.8-6.9-0.6-1.3-0.6-3-0.6-5.1 0-2.7 0.3-4.7 0.3-4.7-0.8 3.6-1.1 5.8-1.1 7.7 0 1.9 0.8 7.6 0.3 7.3-0.7-0.3-1.9-4.6-2.2-6.5-0.5-3.5-0.3-9 0.3-10.1 1.1-1.9 8.7-13.1 8.7-13.1l5.4 2.6 2.1 1z"/>
				<path id="&lt;Path&gt;" class="s30" d="m814.6 551.1c0 0 0.3 2.4-1.1 6.5-0.9 2.6-3.2 4.7-4.9 7.1-0.7 0.9-0.9 2-1 2.9 0 0-0.9-2.9 2.1-6.7 3-3.8 1.9-7.9 2.4-9.6 0.3-0.8 1-1.9 1.6-2.8l2.1 1z"/>
				<path id="&lt;Compound Path&gt;" fill-rule="evenodd" class="s42" d="m833.1 515.1c-4.3 10.1-16.3 34.9-16.3 34.9l-9.9-4.9q0 0 0 0l1.4-2.5q-0.2 0.1-0.4 0.2-1.6 0.8-3.2 1.5c-28.6 12.5-54.2 0-54.2 0 4.4-18.5 5.2-36 5.4-44q0-0.4 0-0.7c0.1-2.5 0-3.9 0-3.9q-0.1 0.6-0.3 1.3c-0.7 2.7-2 6.5-3.4 10.6-3.3 9.4-6 14.1-7.5 16.5-2.1 3.5-11.7 5.1-15.2 2.7-3.6-2.5-6.6-13.9-8-25.7-1.3-11.7-4.6-42.8-4.6-42.8l12.8-2.4 5.1 30.4 1.2 7.2q0 0 0.1-0.3c0.3-0.9 1.3-4 2.6-8.1 3.7-11.4 10-30.3 12.3-32.8 3.3-3.5 21-5.6 21-5.6l6-0.1c4.9-1.4 26.8 0.3 28.9 1.1 2.2 0.8 31.7 45 32 48 0.2 3-1.4 9.3-5.8 19.4zm-22.4-30.4q-0.2-0.2-0.2-0.2c0 0-1.7 9.6-1.7 13.6 0 3.9 3.7 27.3 4.1 29.8q0 0.3 0 0.3c0 0 0.2-0.6 0.4-1.5 0.3-1.4 0.8-3.7 1.4-6.5 1.8-8.7 4.6-21.6 4.8-22.9 0.2-1.7-7.5-11-8.8-12.6z"/>
				<path id="&lt;Path&gt;" class="s43" d="m754 485c0.4 2.6 1.1 8.4 1.6 12-0.7 2.7-2 6.5-3.4 10.6-1.1-7.3-3.2-21.5-2-23.9 1.6-3.3 7.6-14.7 7.6-14.7 0 0-4.3 12.2-3.8 16z"/>
				<path id="&lt;Path&gt;" class="s44" d="m755.9 499.6q0.1 0.4 0.1 0.4l-0.1 0.3q0-0.4 0-0.7z"/>
				<path id="&lt;Path&gt;" class="s44" d=""/>
				<path id="&lt;Path&gt;" class="s45" d="m808.8 498.1c0 3.9 3.7 27.3 4.1 29.8-2 7.1-3.9 12.2-5 14.9-1.1 0.6-5.1 2.1-6.1 2.5 0.6-7.9 4-16.1 1.3-32.2-4.7-27.8-0.5-39.2-0.5-39.2l8.1 10.8q-0.2-0.2-0.2-0.2c0 0-1.7 9.6-1.7 13.6z"/>
				<path id="&lt;Path&gt;" class="s46" d="m814.7 521.1q-0.7 3-1.4 5.6c0.3-1.4 0.8-3.7 1.4-6.5z"/>
				<path id="&lt;Path&gt;" class="s47" d="m788.9 448.5c0 0-1.8 7.2-4 15.9-3.4 13.4-7.9 30.1-8.5 29.7-0.4-0.3-1.1-5.8-1.8-12.9-1.5-13.5-3.1-32.7-3.1-32.7z"/>
				<path id="&lt;Path&gt;" class="s48" d="m739.8 513.1l-3.7-19.9c0.3-0.9 1.3-4 2.6-8.1z"/>
				<path id="&lt;Path&gt;" class="s49" d="m788.9 448.5c0 0-7.6 8.4-17.4 0 0 0 0.9-2.6 1.1-6.8q0.1-1.7 0-3.8c0 0-0.9 0.6-2.2 0.8-0.7 0.1-1.5 0.1-2.3-0.2-2.5-0.8-8.5-9.5-9-28.1 0 0 4-2 6.7-9.1q0.8-1.8 1.3-4.1c0 0 2.5 9 12.3 13.1q0 0 0 0.3c0.3 1.4 1.7 8.3 4.3 11.4 0 0 0.3-11.4 3.9-10.6 3.5 0.8 1.4 10 1.1 10.9-0.6 1.4-1.9 0.5-1.9 0.5 0 0-0.3 18.1 2.1 25.7z"/>
				<path id="&lt;Path&gt;" class="s30" d="m779.7 433.2c0 0-1.8 6-7.1 8.5q0.1-1.7 0-3.8c0 0-0.9 0.6-2.2 0.8 0 0 3.8-1.1 9.3-5.5z"/>
				<path id="&lt;Path&gt;" class="s30" d="m779.4 410.6c-6.3-0.4-11.2-6.1-13.6-9.3q0.8-1.8 1.3-4.1c0 0 2.5 9 12.3 13.1q0 0 0 0.3z"/>
				<path id="&lt;Path&gt;" class="s50" d="m784.9 464.4c-3.4 13.4-7.9 30.1-8.5 29.7-0.4-0.3-1.1-5.8-1.8-12.9z"/>
			</g>
			<g id="&lt;Group&gt;">
				<path id="&lt;Path&gt;" class="s47" d="m161.6 461.1l12-11.3 24 11.3-4.2 114.4h-20z"/>
				<path id="&lt;Path&gt;" class="s51" d="m146.7 764.7c-1.6 1-4.9 1.4-4.9 1.4l-19.5-4.6c6.4-2 11.5-5.2 13.1-7.6 0.8-1.2 1.3-4.4 1.5-7.2 0.3-2.7 0.3-5.1 0.3-5.1l10.5-1.6c0 0 0.1 2.9 0.1 6.7 0 7-0.1 17.3-1.1 18z"/>
				<path id="&lt;Path&gt;" class="s52" d="m147.8 746.7c-1.8 0.3-5.4 0.6-10.9 0 0.3-2.7 0.3-5.1 0.3-5.1l10.5-1.6c0 0 0.1 2.9 0.1 6.7z"/>
				<path id="&lt;Path&gt;" class="s51" d="m216.2 765.2c0 0-14.2 4.7-17.3 4.1-3.2-0.6-1.1-8-0.5-12.2 0.2-2.1 0-6.2-0.2-9.9-0.3-3.8-0.6-7.2-0.6-7.2h10.7c0 0 0.2 3.4 0.4 6.9 0.2 2.9 0.4 5.8 0.7 7 0.5 2.7 6.8 11.3 6.8 11.3z"/>
				<path id="&lt;Path&gt;" class="s52" d="m208.7 746.9c-2.8 0.2-6.4 0.3-10.5 0.3-0.3-3.8-0.6-7.2-0.6-7.2h10.7c0 0 0.2 3.4 0.4 6.9z"/>
				<path id="&lt;Path&gt;" class="s53" d="m211.7 566.3c0 0 0 85 0 92.4 0 7.3-1.5 84-1.5 84h-13.1c0 0-7.9-69.1-8.2-81.1-0.2-12.1-5.5-65.4-5.5-65.4l-0.1 0.4-17 57.4c0 0-3.1 11-5.5 28-2.3 17.1-12.3 60.7-12.3 60.7h-13.1l5.8-85.1 9.1-92.3c17 2.1 34.1 2.8 51.1 1.8q5.2-0.3 10.3-0.8z"/>
				<path id="&lt;Path&gt;" class="s54" d="m121.4 766.3c-1.5-0.8-3.6-4 5.2-6.3 8.9-2.4 15.3 6.3 15.3 6.3-8 2.6-18.9 0.8-20.5 0z"/>
				<path id="&lt;Path&gt;" class="s54" d="m215.7 768.6c-2.1 0.5-18.1 2.3-18.4 0-0.2-1.5 0.5-5.5 5-6.3 4.5-0.8 13.4 2.1 14.7 3.4 1.3 1.4 0 2.7-1.3 2.9z"/>
				<path id="&lt;Path&gt;" class="s55" d="m211.7 566.3c0 0 0 85 0 92.4 0 7.3-1.5 84-1.5 84h-3.5c0.5-6.5 1.5-24-0.2-43.1-2.1-24.1-3.4-33 0-61.7 2.7-22.8-2.8-57.7-5.1-70.8q5.2-0.3 10.3-0.8z"/>
				<path id="&lt;Path&gt;" class="s56" d="m183.3 596.6l-17 57.4c0 0-3.1 11-5.5 28-2.3 17.1-12.3 60.7-12.3 60.7h-4.1c4.1-14.5 6.1-26 8.6-43.1 2.5-18.1-1-19.3 4.4-45.6 2.7-12.9 11.6-25 14.2-40.2 3.7-21.6 8.9-34.4 8.9-34.4z"/>
				<path id="&lt;Path&gt;" class="s57" d="m234.3 601.2c0 0 1.9 17.1 1.3 18.1-0.5 1.1-15.4 6.4-17.3 1.3-2.6-7.1 0-45.9 0-45.9 0 0-0.3-13.4 2.6-12.9 2.9 0.6 13.4 39.4 13.4 39.4z"/>
				<path id="&lt;Path&gt;" class="s58" d="m215.7 586c-0.8-26.3 3.4-30.2 6.8-30.2 3.4 0 16 50.1 16 50.1 0 0-3.4-0.2-5.5-1.3-2.1-1-2.6-12-5.8-26.2-3.1-14.2-5.2-14.5-6.8-12.1-1.6 2.4 0 20.7 0 20.7-3.9 8.7-4.7-1-4.7-1z"/>
				<path id="&lt;Path&gt;" class="s59" d="m186 430.9l-0.3 9.2-0.2 6-0.3 8.4c-10.2 15-17.5 0-17.5 0l-1.1-9.6-0.3-3.1-0.2-2z"/>
				<path id="&lt;Path&gt;" class="s30" d="m185.5 439.7v6.1c-2.5 3.4-5.8 7-8.4 7.1-3.5 0.1-8.1-4.7-10.5-7.7l-0.5-3.1c4.7-3.1 14.2-2.8 19.4-2.4z"/>
				<path id="&lt;Path&gt;" class="s38" d="m158 423.3c0 0-2.5-9.1-1.5-13.5 1-4.5 5.1-2.5 5.1-2.5 0 0-2.2-3.9 1-7.6 3.2-3.7 16.2-5.4 23.8-2.2 7.7 3.2 3 10 3 10 0 0 9.6-2.4 2.9 14.5l-14.7 6.2-19.6-4.7z"/>
				<path id="&lt;Path&gt;" class="s60" d="m164.8 432.6c-5.9 0.5-8.6-8.6-7.3-11.1 1.2-2.4 4.9 1.5 4.9 1.5z"/>
				<path id="&lt;Path&gt;" class="s61" d="m188.1 423c0 0 3.7-3.9 4.9-1.5 1.3 2.5-1.4 11.6-7.3 11.1z"/>
				<path id="&lt;Path&gt;" class="s62" d="m189.3 422.9q0 0 0 0c-0.1 0.6-2 16.2-2.9 19-0.7 2.3-4.6 6.2-8 7.5-0.8 0.3-1.6 0.5-2.3 0.5-3-0.2-5.7-2-7.8-4.2-1.2-1.3-2.1-2.6-2.8-3.9-1.8-3.3-3.4-20.6-3.4-20.6 0 0 2.4-2.7 3.2-8.6q0.1-1.1 0.2-2.3c0 0 13.5-4.3 22 1.7q0 0 0 0.1c0 0.7-0.4 6.1 1.8 10.8z"/>
				<path id="&lt;Path&gt;" class="s30" d="m188.9 422c0 0.6-1 16.3-1.7 19.2-0.6 2.4-4.2 6.5-7.6 8 6.5-4.4 9.2-26.6 9.3-27.2z"/>
				<path id="&lt;Path&gt;" class="s30" d="m186.4 411.2q0 0 0 0.1c-9.1-2.1-18.8 0.8-22.1 2q0.1-1.1 0-2.3c0 0 13.3-5.2 22.1 0.2z"/>
				<path id="&lt;Path&gt;" class="s63" d="m177.6 569.5c-4.9 0-9.3-0.3-13.1-0.8-8.6-1.3-13.6-3.4-13.6-3.4l-2.7-67c0 0-4.1 13.5-5.4 19.2-0.2 1.2-0.4 2-0.3 2.4 0.2 2.1 3.4 16.8 3.4 16.8l-15.2 5.7c0 0-7.6-14.9-7.6-19.9 0-5 11-53 13.3-56.7 2.4-3.7 31.3-11.3 31.3-11.3z"/>
				<path id="&lt;Path&gt;" class="s64" d="m211.7 521.7c0.1-1.6 0.2-2.9 0-3.7-0.5-2.6-4.2-13.9-4.2-13.9 0.6 6.3 4.2 66.7 4.2 66.7-3.4 0.1-7.5-0.1-11.2-0.3-6.4-0.4-11.8-1-11.8-1l-2.9-115c14.4 1.3 29.6 7.9 31.2 8.9 1.6 1.1 12.6 52.8 12.6 54.9 0 2.1-4.5 17.3-4.5 17.3l-14.8-4.2h-0.1q0 0 0.1-0.4c0.2-1.4 1-5.7 1.4-9.1q0 0 0 0 0 0 0 0 0-0.1 0-0.2 0 0 0 0z"/>
				<path id="&lt;Path&gt;" class="s65" d="m164.5 568.7c-8.6-1.3-13.6-3.4-13.6-3.4l-2.7-67c0 0-4.1 13.5-5.4 19.2l-3.5 10.2 11-49.3c0 0 5 17.3 3.2 40.9-1.4 18.4 10.8 32.5 11 49.4z"/>
				<path id="&lt;Path&gt;" class="s66" d="m207.5 504.1c0.6 6.3 4.2 66.7 4.2 66.7-3.4 0.1-7.5-0.1-11.2-0.3 6.6-13 4.4-39.6 2.3-52.5-2.3-14.4 0-43 0-43 0 0 9.7 36.5 9.7 37.8 0 1.2-0.7 7.6-0.8 8.9 0.1-1.6 0.2-2.9 0-3.7-0.5-2.6-4.2-13.9-4.2-13.9z"/>
				<path id="&lt;Path&gt;" class="s67" d="m159.5 576.5c-0.3 1.1-0.9 2.1-1.7 2.9-2.1 2.4-5.1 3.7-5.1 3.7-7.3-11.5-22-40.7-22-40.7l10.4-3.9 4.8-1.8c0.6 1.4 3 10.3 6 19.9 3 9.6 7.6 19.9 7.6 19.9z"/>
				<path id="&lt;Path&gt;" class="s30" d="m159.5 576.5c-0.3 1.1-0.9 2.1-1.7 2.9-2-9.5-6.7-12.3-9.3-23.1-1.9-8-5.4-14.4-7.4-17.8l4.8-1.8c0.6 1.4 3 10.3 6 19.9 3 9.6 7.6 19.9 7.6 19.9z"/>
				<path id="&lt;Path&gt;" class="s68" d="m148.2 541.4c0 0-16 5.8-16.8 6.3-0.7 0.5-5.2-8.4-5.2-8.4l20.7-7.4c0 0 2.5 7.7 1.3 9.5z"/>
				<path id="&lt;Path&gt;" class="s57" d="m197.6 455.8c0 0-3.2 77.5 18.2 96.8l-3.3 7.1c0 0-24.9-24.9-21-104.4 0 0 2.1-1.3 6.1 0.5z"/>
				<path id="&lt;Path&gt;" class="s69" d="m221.7 579.7c0.5 1.6 1.1 10.5-1.3 11.5-2.4 1.1-7.9 0.6-7.9 0.6 0 0 9 9.7 7.6 9.9-1.3 0.3-9.4-6.8-9.9-8.4-0.6-1.5-4-14.7-3.7-21.5 0.3-6.8 3.7-40.9 3.7-40.9l9.2 2.9 5.7 1.8c-1.7 5.3-10.7 36.7-10.7 36.7q0 0.1 0 0.2c1.9 4.2 4.7 14.5 4.7 14.5 0 0 2.1-8.9 2.6-7.3z"/>
				<path id="&lt;Path&gt;" class="s30" d="m214.4 572.3q0 0.1 0 0.2l-2.7 3c3.2-8.1 1.6-16.8 5.3-26.8 2.3-6.3 2.5-11.7 2.4-14.9l5.7 1.8c-1.7 5.3-10.7 36.7-10.7 36.7z"/>
				<path id="&lt;Path&gt;" class="s68" d="m208.1 529l20.7 5.8c0 0-3.1 7.9-3.7 8.2-0.5 0.2-16.5-4-16.8-4.5-0.2-0.5-0.2-9.5-0.2-9.5z"/>
			</g>
			<g id="&lt;Group&gt;">
				<path id="&lt;Path&gt;" class="s51" d="m302.8 756.7c1.3-1.9 0.8-4.3 0.8-4.3v-0.6l-0.4-8.8 13.8 2.6-0.1 6q0 0 0.1 0.4c0.3 1.8 1.6 11.5-0.1 12.7-1.8 1.4-26.1 14.2-29.3 12-3.2-2.1 13.9-18.1 15.2-20z"/>
				<path id="&lt;Path&gt;" class="s70" d="m317 745.6l-0.1 6q0 0 0.1 0.4c-5.9 2.3-10.9 0.9-13.4-0.2l-0.4-8.8z"/>
				<path id="&lt;Path&gt;" class="s51" d="m344.4 752.3q0-0.1 0-0.1l-0.2-10.8 13.1 3.8-0.1 6.7q0 0 0.1 0c1.8 0.6 29 9.7 27.7 13.4-1.3 3.7-27 0.2-30.7 0-3.7-0.3-8.5 0.2-9.9-1.4-1.2-1.5-0.1-10.4 0-11.6z"/>
				<path id="&lt;Path&gt;" class="s70" d="m344.2 741.4l13.1 3.8-0.1 6.7q0 0 0.1 0c-4.6 1.7-9.8 1-12.9 0.4q0-0.1 0-0.1z"/>
				<path id="&lt;Path&gt;" class="s71" d="m304.1 563.2l31.3-2.5 1.3-0.1 21.6 53.6c0 0 5.3 31.8 4.8 37.4-0.5 5.6-5.9 95.2-5.9 95.2-3.8 1.3-7.4 1.1-9.8 0.7-1.7-0.3-2.7-0.7-2.7-0.7-2.1-22.6-4.5-83.2-5.6-87.5-1.1-4.3-14.4-58.4-14.4-58.4 0 0-0.1 1.3-0.2 3.7-0.4 11-1.6 43.3-2.2 49.9-0.8 8-5.4 92.3-5.4 92.3-3.2 2.1-6.9 1.9-9.6 1.3-2.2-0.5-3.7-1.3-3.7-1.3-3.7-36.3-5.9-84.6-5.9-84.6l-3.2-30.7z"/>
				<path id="&lt;Path&gt;" class="s72" d="m304.1 563.2l31.3-2.5-3.9 16.8c0 0-13.9 0.3-16 24.3-2.2 24-12.3 43.8-10.2 64.6 2.2 20.8 2.7 24.5 1.9 38.9-0.8 14.4-1.6 37.8 0.1 42.8-2.2-0.5-3.7-1.3-3.7-1.3-3.7-36.3-5.9-84.6-5.9-84.6l-3.2-30.7z"/>
				<path id="&lt;Path&gt;" class="s73" d="m336.8 626.6c5.1 16.6 13.4 24.3 12.3 31-1.1 6.6-4 21.9-2.9 46.1 0.8 19.2 2 35.3 1.2 43.8-1.7-0.3-2.7-0.7-2.7-0.7-2.1-22.6-4.5-83.2-5.6-87.5-1.1-4.3-14.4-58.4-14.4-58.4 0 0-0.1 1.3-0.2 3.7v-15.9c0 0 7.2 21.4 12.3 37.9z"/>
				<path id="&lt;Path&gt;" class="s47" d="m316.1 479.4c2.4 0.6 9.6-14.7 9.6-14.7l11 11.3-2 67.5-0.7 23.5c0 0-7.2 5.3-23.7 0l-3.1-49.8-3.1-49.3c0 0 9.6 11 12 11.5z"/>
				<path id="&lt;Path&gt;" class="s50" d="m308.7 497.8c0 0 5.6 44.3 21.6 44.6 1.8 0 3.2 0.4 4.4 1.1l-0.7 23.5c0 0-7.2 5.3-23.7 0l-3.1-49.8z"/>
				<path id="&lt;Path&gt;" class="s37" d=""/>
				<path id="&lt;Path&gt;" class="s74" d="m293.2 430.6c0 0-11.5 5.9-13.4-8.8-1.8-14.7 9.1-23.2 15.3-21.9 6.1 1.3 6.6 6.4 6.6 6.4z"/>
				<path id="&lt;Path&gt;" class="s38" d="m303.5 454.8c0 0-13.5-8.5-13-26.1 0.6-17.6 10.7-26.7 20-26.1 9.4 0.5 10.4 6.9 10.4 6.9 4.6-5.6 9.9-1.6 12.1 5.1 2 6.3-1.9 42.1-1.9 42.1l-2.1-20.8z"/>
				<path id="&lt;Path&gt;" class="s75" d="m392.5 486.4c4.8-8.8 8.8-16.9 12.2-18.5 3.5-1.6 18.5 1.1 22.5 0.8 4-0.2 8.5-3.2 9.6-2.9 0.8 0.2-4.9 3.7-8.6 5.7q0 0 0 0c-1.2 0.8-2.2 1.3-2.6 1.5-1.6 0.8-16.3 1.6-18.5 2.7-2.1 1.1-17.4 48.2-17.4 48.2l-5.9-3.7-8.1-5c0 0 12-20 16.8-28.8z"/>
				<path id="&lt;Path&gt;" class="s30" d="m384.5 519.5c4.8-3.5 14.9-29.9 16.8-37.7 1.8-7.7 4-8.8 10.1-8.8 6.1 0 16.5-1.4 16.8-1.5-1.2 0.8-2.2 1.3-2.6 1.5-1.6 0.8-16.3 1.6-18.5 2.7-2.1 1.1-17.4 48.2-17.4 48.2l-5.9-3.7q0.1-0.4 0.7-0.7z"/>
				<path id="&lt;Path&gt;" class="s76" d="m368.9 515.2c1.2 3.7 1.9 6.1 1.9 6.1l3.4-4.2-7.4 9.6z"/>
				<path id="&lt;Path&gt;" class="s77" d="m298.5 430.1c2.4-2.5 5.6 6.1 5.6 6.1 0 0 8-6 12.4-15.4q1.1-2.2 1.8-4.6c0 0 2.9 7.6 9.3 12.5q0.9 0.7 1.9 1.4c0 0-1.3 23.6-5.3 26.7q-0.1 0.1-0.3 0.2-1 0.4-1.7 0.6 0 0 0 0-1 0.2-1.7 0.2c-0.7 0-1.2-0.1-1.5-0.3q-0.1 0-0.1 0c-0.4-0.2-0.6-0.5-0.6-0.5q0 0 0 0.2c0.1 0.9 0.6 3.5 1.6 5.3 0.5 0.8 1.1 1.5 1.8 1.7 2.7 0.8 6 0.5 6 0.5 0 0-7.3 17.1-11.3 17.4-4 0.3-15.1-14-15.1-14 0 0 3.3-0.9 3.5-3.2 0.5-6.1-1.7-18.6-2.3-25 0 0-1.6 1.9-2.6 1.1-1.1-0.8-3.8-8.5-1.4-10.9z"/>
				<path id="&lt;Path&gt;" class="s38" d="m309.5 427.6c-3 9.9-1.4 31.5-1.4 31.5-3.2-6.6-4-22.9-4-22.9z"/>
				<path id="&lt;Path&gt;" class="s78" d="m323.7 464.9c0 0 19.9-3.1 26.9 4.9 5.3 6.1 14.3 33.1 18.3 45.4 1.2 3.7 1.9 6.1 1.9 6.1l3.4-4.2v-0.1l2.8-3.4 13.9 7.7c0 0-9.7 22.5-18.2 28.3-1.4 1-2.7 1.5-4 1.3-9.1-0.8-20.5-36.2-20.5-36.2 0 0 0.2 2.4 0.7 6.5 1.8 15.8 6.6 56 10.2 69.8 4.5 17.3 9.6 43.2 9.6 43.2 0 0-30.7 8.6-34.1-8-3.5-16.5-6.9-66.7-5.4-96.6 1.3-26.2-5.5-64.7-5.5-64.7z"/>
				<path id="&lt;Path&gt;" class="s79" d="m346.3 494.9c1.6 6.4 2.9 16.5 9.3 22.4 6.4 5.9 7 15.5 10.7 25.4 1.5 3.9 4 5.9 6.4 6.9-1.4 1-2.7 1.5-4 1.3-9.1-0.8-20.5-36.2-20.5-36.2 0 0 0.2 2.4 0.7 6.5-2.5-13.8-2.6-26.3-2.6-26.3z"/>
				<path id="&lt;Path&gt;" class="s80" d="m282.2 473.3c6.2-5.1 21-6 21-6 0 0 11.1 51.4 11.3 59.1 0.3 7.7 7.2 80.3 3.8 97.4-3.5 17.1-31.8 12.5-31.8 12.5 0 0 5.1-53.9 4-73.1-0.9-17.4-2.4-49.4-2.6-55.3q-0.1-1-0.1-1l-26.4 22.7 4 3.7-0.9 1.1-10.5 11.7c0 0-9.9-6.9-10.7-14.1-0.8-7.2 32.8-53.6 38.9-58.7z"/>
				<path id="&lt;Path&gt;" class="s81" d="m277.4 508c8-12.8 14.2-19.8 14.2-19.8l-3.7 19.7q-0.1-1-0.1-1l-26.4 22.7 4 3.7-0.9 1.1-9.2-7.2c0 0 14.1-6.4 22.1-19.2z"/>
				<path id="&lt;Path&gt;" class="s82" d="m262.5 536.8l2.9-3.2c0 0 28.3 24.6 31.5 25.6 1.2 0.4 2.8 0.4 4.6 0.3 3.3-0.2 6.9-0.8 8.3-0.3 2.1 0.8 9.3 5.1 9.8 6.2 0.5 1 1.6 4.8 0.8 4.5-0.8-0.3-3.2-4.3-4.8-5.1-1.6-0.8-5.2-1.7-7.7-1.9 0 0 6.4 2.5 7.4 3.5 1.1 1.1 3.8 8.6 3.5 8.8-0.3 0.3-4.3-5.3-5.1-6.4-0.8-1-7.7-2.4-7.7-2.4 0 0 6.7 2.4 6.9 3.2 0.3 0.8 1.6 6.2 1.1 6.4-0.5 0.3-2.7-4.5-3.7-5-1.1-0.6-10.4 1-13.4-0.6-2.9-1.6-3.7-2.9-3.7-2.9 0 0-26.7-13.9-39.2-21.4z"/>
				<path id="&lt;Path&gt;" class="s30" d="m265.4 533.6c0 0 28.3 24.6 31.5 25.6 1.2 0.4 2.8 0.4 4.6 0.3 0 0-5.5 1.8-11.3-2.2-5.1-3.4-23.1-17-27.7-20.5z"/>
				<path id="&lt;Path&gt;" class="s30" d="m318.3 416.2c0 0 2.9 7.6 9.3 12.5-2.7-1.5-8-4.6-11.1-7.9q1.1-2.2 1.8-4.6z"/>
				<path id="&lt;Path&gt;" class="s83" d="m323.7 456.6c0 0 0.2 0.1 0.5 0.2q-0.1 0.1-0.3 0.2-1 0.4-1.7 0.6c1-0.4 1.5-1 1.5-1z"/>
				<path id="&lt;Path&gt;" class="s84" d="m319 457.5c0.3 0.2 0.8 0.3 1.5 0.3q-0.7 0-1.5-0.3z"/>
				<path id="&lt;Path&gt;" class="s30" d="m318.3 457.2c0.1 0.9 0.6 3.5 1.6 5.3-7.7-1.2-7.9-11.2-7.9-11.2 2.5 3.4 4.6 5.1 6.3 5.9z"/>
			</g>
			<g id="&lt;Group&gt;">
				<path id="&lt;Path&gt;" class="s85" d="m865.6 287.1v62.2c0 4.5-3.6 8.1-8.1 8.1h-66l-29.5 24.6c-1.8 1.4-4.3-0.3-3.6-2.4l8.2-23.2c-2.5-1.4-4.2-4-4.2-7.1v-62.2c0-4.5 3.6-8.1 8.1-8.1h87c4.5 0 8.1 3.6 8.1 8.1z"/>
				<g id="&lt;Group&gt;">
					<path id="&lt;Path&gt;" class="s26" d="m838.9 318.2c0 7.6-3.4 14.4-8.8 19-4.3 3.7-9.9 5.9-16.1 5.9-6 0-11.6-2.1-15.9-5.7-5.5-4.6-9-11.5-9-19.2-0.1-13.7 11.1-24.9 24.8-24.9 13.8-0.1 25 11.1 25 24.9z"/>
					<path id="&lt;Path&gt;" class="s21" d="m830.1 337.2c-4.3 3.7-9.9 5.9-16.1 5.9-6 0-11.6-2.1-15.9-5.7 0.5-4.7 1.7-9 3.6-12.4 1.2-2.3 4-3.3 6.4-2.2 1.8 0.9 3.8 1.3 5.9 1.3 2.2 0 4.2-0.5 6-1.3 2.4-1.2 5.2-0.3 6.4 2 1.9 3.5 3.2 7.7 3.7 12.4z"/>
					<path id="&lt;Path&gt;" class="s21" d="m824.3 310.1c0 5.7-4.6 10.4-10.3 10.4-5.7 0-10.4-4.6-10.4-10.3 0-5.8 4.6-10.4 10.4-10.4 5.7 0 10.3 4.6 10.3 10.3z"/>
				</g>
			</g>
			<g id="&lt;Group&gt;">
				<path id="&lt;Path&gt;" class="s85" d="m158.4 357.5l5.5 27c0.3 1.5-1.6 2.5-2.6 1.4l-26.7-28.4h-63.6c-4.4 0-8.1-3.6-8.1-8.1v-62.3c0-4.4 3.7-8 8.1-8h87.1c4.4 0 8 3.6 8 8v62.3c0 4.4-3.4 7.9-7.7 8.1z"/>
				<g id="&lt;Group&gt;">
					<path id="&lt;Path&gt;" class="s26" d="m139.3 318.4c0 13.6-11 24.7-24.6 24.7-13.6 0-24.7-11.1-24.7-24.7 0-13.6 11.1-24.6 24.7-24.6 13.6 0 24.6 11 24.6 24.6z"/>
					<path id="&lt;Path&gt;" class="s21" d="m119.2 308.4c0 0 2.2-6.8 4-7 1.8-0.3 8.7 4.4 7.6 11.9-1.2 7.5-11.6 18.3-19.6 19-8.1 0.6-13.4-4.4-12.7-6.1 0.7-1.7 4-5.9 7-4.4 2.9 1.5 5.4 4.5 8.7 1.9 3.4-2.6 9-7.3 9.4-9.9 0.3-2.6-4.4-2.7-4.4-5.4z"/>
				</g>
			</g>
			<g id="&lt;Group&gt;">
				<path id="&lt;Path&gt;" class="s85" d="m317 273.7v62.3c0 4.5-3.6 8.1-8 8.1h-25.9l2.2 33.3c0.1 1.5-2 2.1-2.7 0.8l-19.2-34.1h-41.5c-4.4 0-8.1-3.6-8.1-8.1v-62.3c0-4.4 3.7-8.1 8.1-8.1h87.1c4.4 0 8 3.7 8 8.1z"/>
				<path id="&lt;Path&gt;" class="s21" d="m286 295v22.4c0 1.4-1.2 2.6-2.6 2.6h-36c-1.3 0-2.5-1.2-2.5-2.6v-22.4q0-0.2 0.1-0.4l18.3 10.3c1.3 0.7 3 0.7 4.3 0l18.3-10.3q0.1 0.2 0.1 0.4z"/>
				<path id="&lt;Path&gt;" class="s21" d="m285.9 291.2l-18.3 10.3c-1.3 0.8-3 0.8-4.3 0l-18.3-10.3q0-0.1 0-0.1c0.1-0.6 0.4-1 0.8-1.4 0.4-0.3 0.9-0.5 1.4-0.5q0.1-0.1 0.2-0.1h36c1.3 0 2.3 0.9 2.5 2.1z"/>
				<path id="&lt;Path&gt;" class="s86" d="m238.3 289.4q0 0.1 0 0.2l-0.1-0.1q0 0 0.1-0.1z"/>
			</g>
		</g>
	</g>
</svg>