<svg version="1.2" xmlns="http://www.w3.org/2000/svg" viewBox="0 0 1000 1000" width="1000" height="1000">
	<title>7060734-ai</title>
	<defs>
		<clipPath clipPathUnits="userSpaceOnUse" id="cp1">
			<path d="m444.9 49.08c44.14-17.04 98.36-3.2 128.96 32.9 17.84 21.08 28.56 48.98 51.68 64.08 13.48 8.8 30.06 12.36 42.78 22.24 19.9 15.46 25.98 42.42 30.76 67.18 2 4.92 2.3 9.6 1.14 14.04-1.16 4.44-4.08 8.68-8.42 10.2-4.34 1.52-9.98-0.6-11.24-5.02-2.5 10.1-2.76 18.24-5 25.98-2.24 7.74-6.76 15.14-13.72 19.18-6.96 4.04-16.58 3.98-22.52-1.46-7.86 9.98-14.4 21.44-24.86 28.6-10.46 7.16-26.02 8.56-35.08-0.3-14.74 15.44-33.44 25.62-53.36 29.1-19.92 3.48-40.96 0.22-58.92-9.1-8.62 12.06-25.22 18.48-41.48 17.44-16.26-1.04-31.9-9.52-41.66-22.58-4.02 10.22-12.72 16.12-21.42 16.34-8.7 0.22-17.02-4.5-22.68-11.12-5.66-6.62-8.94-14.96-11.1-23.38-8.82 12.82-20.66 7.64-26.34-1-5.68-8.64-6.4-19.64-5.38-29.94 1.66-42.38 24.2-47.64 41.6-87.28 6.28-14.32-1.62-33.3-1.8-48.94-0.18-15.64 1.8-32 10.5-45 12.36-18.5 34.16-28.62 54.86-20.42 1.1-15.82 21.42-33.54 42.7-41.74z"/>
		</clipPath>
		<clipPath clipPathUnits="userSpaceOnUse" id="cp2">
			<path d="m249.5 413.2l-169.92-218.72 29.6-23.32 168.72 218.74z"/>
		</clipPath>
	</defs>
	<style>
		.s0 { fill: #bfd7b1 } 
		.s1 { fill: #d6e6c3 } 
		.s2 { fill: none;stroke: #4d223d;stroke-width: 2 } 
		.s3 { fill: #e64363 } 
		.s4 { fill: #46b08d } 
		.s5 { fill: #62bbbf } 
		.s6 { fill: none;stroke: #33819e;stroke-width: 2 } 
		.s7 { fill: none;stroke: #33829e;stroke-width: 2 } 
		.s8 { fill: #6f4659 } 
		.s9 { fill: #a83246 } 
		.s10 { fill: #701934 } 
		.s11 { fill: #c95559 } 
		.s12 { fill: #f18361 } 
		.s13 { fill: #fba07f } 
		.s14 { fill: #c0f0f0 } 
		.s15 { fill: #f9af88 } 
		.s16 { fill: #2f3961 } 
		.s17 { fill: #c9102c } 
		.s18 { fill: none;stroke: #ffffff;stroke-width: 6 } 
		.s19 { fill: #0a7ac4 } 
		.s20 { fill: #0464ac } 
		.s21 { fill: #fe80ab } 
		.s22 { fill: #d12863 } 
		.s23 { fill: #fed401 } 
		.s24 { fill: #eb9307 } 
		.s25 { fill: none;stroke: #014b73;stroke-width: 2 } 
		.s26 { fill: #fabe93 } 
		.s27 { fill: #138acf } 
		.s28 { fill: #ffffff } 
		.s29 { opacity: .4;fill: #f2a905 } 
		.s30 { fill: #fff582 } 
		.s31 { fill: #f2a905 } 
	</style>
	<g id="BACKGROUND">
		<path id="&lt;Path&gt;" class="s0" d="m-0.4 0h1000v1000h-1000z"/>
	</g>
	<g id="OBJECTS">
		<path id="&lt;Path&gt;" class="s1" d="m750.7 113.4c63.8 71.3 109.5 160.4 125.9 254.8 16.3 94.3-2.4 197.1-63.1 271.2-57 69.7-146.5 108.4-236.3 115.7-89.9 7.4-180.2-14.4-263.4-49.2-57.2-23.9-112.6-54.7-155.5-99.3-43-44.7-72.6-104.6-71.1-166.4 1.6-61.9 38.2-124.1 95.9-146.7 40.5-15.8 91.1-14 119.4-46.9 19.7-22.8 21.8-55.5 31.9-83.9 24.2-68.3 96.7-110.7 168.8-118.5 72.1-7.8 172.7-14.3 247.5 69.2z"/>
		<g id="&lt;Group&gt;">
			<g id="&lt;Group&gt;">
				<g id="&lt;Group&gt;">
					<g id="&lt;Group&gt;">
						<path id="&lt;Path&gt;" class="s2" d="m717.6 296.4c-16.7 54-38 106.5-63.7 156.8"/>
						<path id="&lt;Path&gt;" class="s2" d="m678.4 402.4c38-18.9 73-43.7 103.6-73"/>
						<path id="&lt;Path&gt;" class="s2" d="m717.9 380.8c27.1 5.8 55.4 5.3 82.3-1.3"/>
					</g>
					<g id="&lt;Group&gt;">
						<path id="&lt;Path&gt;" class="s3" d="m717.6 284.2c6.8 0 12.3 5.5 12.3 12.2 0 6.8-5.5 12.3-12.3 12.3-6.8 0-12.3-5.5-12.3-12.3 0-6.7 5.5-12.2 12.3-12.2z"/>
						<path id="&lt;Path&gt;" class="s3" d="m783.5 314.8c6.8 0 12.3 5.5 12.3 12.3 0 6.7-5.5 12.2-12.3 12.2-6.8 0-12.3-5.5-12.3-12.2 0-6.8 5.5-12.3 12.3-12.3z"/>
						<path id="&lt;Path&gt;" class="s3" d="m800.2 367.2c6.8 0 12.3 5.5 12.3 12.3 0 6.8-5.5 12.3-12.3 12.3-6.8 0-12.3-5.5-12.3-12.3 0-6.8 5.5-12.3 12.3-12.3z"/>
					</g>
				</g>
				<g id="&lt;Group&gt;">
					<g id="&lt;Group&gt;">
						<path id="&lt;Path&gt;" class="s2" d="m639.4 323c-0.9 42.5 2.4 85.2 9.7 127.1"/>
						<path id="&lt;Path&gt;" class="s2" d="m673.4 347.5c-7.9 13.5-18.9 25.2-31.9 33.9"/>
						<path id="&lt;Path&gt;" class="s2" d="m640.3 373.4c-12.4-5.5-24.1-13.8-34.2-24.6"/>
					</g>
					<g id="&lt;Group&gt;">
						<path id="&lt;Path&gt;" class="s3" d="m674.3 334c6.8 0 12.3 5.5 12.3 12.2 0 6.8-5.5 12.3-12.3 12.3-6.8 0-12.3-5.5-12.3-12.3 0-6.7 5.5-12.2 12.3-12.2z"/>
						<path id="&lt;Path&gt;" class="s3" d="m639.9 310.7c6.7 0 12.2 5.5 12.2 12.3 0 6.8-5.5 12.3-12.2 12.3-6.8 0-12.3-5.5-12.3-12.3 0-6.8 5.5-12.3 12.3-12.3z"/>
						<path id="&lt;Path&gt;" class="s3" d="m604.4 335.3c6.8 0 12.3 5.5 12.3 12.2 0 6.8-5.5 12.3-12.3 12.3-6.7 0-12.2-5.5-12.2-12.3 0-6.7 5.5-12.2 12.2-12.2z"/>
					</g>
				</g>
			</g>
			<g id="&lt;Group&gt;">
				<g id="&lt;Group&gt;">
					<path id="&lt;Path&gt;" class="s2" d="m247.7 265.5c29.8 71.7 75.1 136.8 131.9 189.8"/>
					<path id="&lt;Path&gt;" class="s2" d="m344.3 288.5c11.7 52.3 21 105 27.9 158.1"/>
					<path id="&lt;Path&gt;" class="s2" d="m322.8 362.7c11.5 14.2 26.7 25.3 43.6 32"/>
					<path id="&lt;Path&gt;" class="s2" d="m293.1 249c4.6 32.6 4 66.1-1.9 98.5"/>
					<path id="&lt;Path&gt;" class="s2" d="m274.4 322.1c-20.6-2.8-40.3-12.4-55-27"/>
				</g>
				<g id="&lt;Group&gt;">
					<path id="&lt;Path&gt;" class="s3" d="m245.1 244.1c7.9 0 14.3 6.4 14.3 14.3 0 7.9-6.4 14.4-14.3 14.4-7.9 0-14.3-6.5-14.3-14.4 0-7.9 6.4-14.3 14.3-14.3z"/>
					<path id="&lt;Path&gt;" class="s3" d="m294.3 229.7c7.9 0 14.3 6.5 14.3 14.4 0 7.9-6.4 14.3-14.3 14.3-8 0-14.4-6.4-14.4-14.3 0-7.9 6.4-14.4 14.4-14.4z"/>
					<path id="&lt;Path&gt;" class="s3" d="m213.7 278.6c7.9 0 14.3 6.4 14.3 14.3 0 8-6.4 14.4-14.3 14.4-8 0-14.4-6.4-14.4-14.4 0-7.9 6.4-14.3 14.4-14.3z"/>
					<path id="&lt;Path&gt;" class="s3" d="m322.9 345.9c7.9 0 14.4 6.4 14.4 14.3 0 7.9-6.5 14.3-14.4 14.3-7.9 0-14.3-6.4-14.3-14.3 0-7.9 6.4-14.3 14.3-14.3z"/>
				</g>
			</g>
			<g id="&lt;Group&gt;">
				<path id="&lt;Path&gt;" class="s4" d="m651.6 634.7l-2-0.8c33.4-84.8 94.4-158.1 171.7-206.3l1.2 1.8c-76.9 48-137.6 120.9-170.9 205.3z"/>
				<path id="&lt;Path&gt;" class="s4" d="m783.4 454.6c-3.9-16.6 4.4-34.3 17.3-45.3 12.9-11.1 29.7-16.5 46.5-19.5 20.9-3.7 42.4-4 63.4-0.9-9.8 24.5-28.9 45.2-52.5 57-23.6 11.7-51.6 14.5-74.7 8.7z"/>
				<path id="&lt;Path&gt;" class="s4" d="m750 486.2c19-15.4 43.7-23.7 68.1-22.9 24.5 0.8 48.5 10.6 66.5 27.2-21.6 11.1-44.7 20.4-69 21.9-24.3 1.6-50-5.4-65.6-26.2z"/>
				<path id="&lt;Path&gt;" class="s4" d="m700.4 543.8c19.2-15.7 43.7-24.8 68.6-25.3 24.8-0.5 49.7 7.5 69.5 22.5-18.7 17.6-44 28.2-69.7 29.3-25.7 1-51.7-7.4-68.4-26.5z"/>
				<path id="&lt;Path&gt;" class="s4" d="m726.8 425.5c2.4-22.1 12.8-42.5 23-62.2 16.5 14.2 22.9 37.6 21.2 59.4-1.7 21.7-10.5 42.3-20.2 61.8-18.9-12.3-26.3-36.9-24-59z"/>
				<path id="&lt;Path&gt;" class="s4" d="m704.5 534.5c24.7-40 21-95.6-8.8-131.9-24.6 36.9-25.7 88.1 8.8 131.9z"/>
			</g>
			<g id="&lt;Group&gt;">
				<path id="&lt;Path&gt;" class="s5" d="m606.6 728.5c23.5-55.3 69.1-100.8 124.4-124.1 55.3-23.3 119.7-24.1 179 0.1-22.2 57.5-68.9 105.1-126 128.2-57 23.2-123.7 21.7-177.4-4.2z"/>
				<g id="&lt;Group&gt;">
					<path id="&lt;Path&gt;" class="s6" d="m883.4 615.5c-93.9 17.7-182.8 61.4-254.4 124.8"/>
					<path id="&lt;Path&gt;" class="s6" d="m817.9 592.3c-13.9 15.2-25.2 32.8-33.3 51.9"/>
					<path id="&lt;Path&gt;" class="s6" d="m764.4 598.2c-24.7 20.5-42.7 49-50.5 80.1"/>
					<path id="&lt;Path&gt;" class="s6" d="m868.7 652.4c-17-8.6-35.3-14.7-54-18.1"/>
					<path id="&lt;Path&gt;" class="s6" d="m813.7 705.4c-24.1-17.1-51.8-29.3-80.7-35.5"/>
					<path id="&lt;Path&gt;" class="s6" d="m714 739.7q-20.7-17.2-41.3-34.4"/>
				</g>
			</g>
			<g id="&lt;Group&gt;">
				<path id="&lt;Path&gt;" class="s4" d="m387.5 731.3c-65.5-57.9-154.7-83.5-238.7-68.4l-0.3-1.9c84.5-15.2 174.3 10.5 240.2 68.8z"/>
				<path id="&lt;Path&gt;" class="s4" d="m83.4 683c12.8-22.2 34.6-38.3 58.6-43.1 24-4.9 49.8 1.5 69.4 17.1-42 27.9-87.3 37.3-128 26z"/>
				<path id="&lt;Path&gt;" class="s4" d="m245.7 660.7c-19.6-6-37.4-18.8-49.9-36.1-12.5-17.2-19.5-38.8-19.9-60.6 22.5 0.7 44.5 12.1 58.8 30.6 14.4 18.5 20.8 43.8 11 66.1z"/>
				<path id="&lt;Path&gt;" class="s4" d="m158.7 736.9c1.7-25.4 19.7-47 41.3-57.8 21.5-10.8 46.1-12.3 69.9-11.1-27.6 39.6-68.4 65.4-111.2 68.9z"/>
				<path id="&lt;Path&gt;" class="s4" d="m312.2 681.8c-20-10.4-35.9-29.5-43.3-51.9-7.4-22.4-6.2-47.9 3.3-69.4 31 28.9 46.7 75.2 40 121.3z"/>
				<path id="&lt;Path&gt;" class="s4" d="m228.3 752.5c7-21.9 21.9-40.7 41-51.7 19-11 41.9-13.9 62.9-8.2-22 37.1-63.1 62.2-103.9 59.9z"/>
				<path id="&lt;Path&gt;" class="s4" d="m296.6 748.8c8.4-15.8 23.2-27.5 39.8-31.5 16.6-3.9 34.7 0.1 48.5 10.7-24.9 23-57.7 27.9-88.3 20.8z"/>
				<path id="&lt;Path&gt;" class="s4" d="m348.1 704c-22.5-34.3-25.7-81.9-8-119.2 11.3 16.9 19.8 36.4 22.8 57 3.1 20.5 0.5 42.3-14.8 62.2z"/>
			</g>
			<g id="&lt;Group&gt;">
				<path id="&lt;Path&gt;" class="s5" d="m192.9 587.4c-47.3-33.1-80.1-86.3-88.5-143.5 57-20.3 123.3-12.5 174 20.5 50.7 33 84.7 90.3 89.2 150.6-66.1 18.1-127.3 5.5-174.7-27.6z"/>
				<g id="&lt;Group&gt;">
					<path id="&lt;Path&gt;" class="s7" d="m124 452.6c45 12.5 86.4 35.8 124 63.4 37.7 27.7 71.8 59.8 105.8 91.8"/>
					<path id="&lt;Path&gt;" class="s7" d="m139.8 497.6c20.1-5.8 40.8-10 61.6-12.6"/>
					<path id="&lt;Path&gt;" class="s7" d="m191.7 566.6q35.9-18.9 71.9-37.9"/>
					<path id="&lt;Path&gt;" class="s7" d="m224.9 449c3.7 17.5 5.4 35.3 5.2 53.2"/>
				</g>
			</g>
		</g>
		<g id="&lt;Group&gt;">
			<path id="&lt;Path&gt;" class="s8" d="m420.8 758.8v-76.4h18.9 2 18.7 0.2 35.4 50.3 21.5 21.9v10.9 2.8 15.9 46.8h-19.7-124.3z"/>
			<g id="&lt;Group&gt;">
				<path id="&lt;Path&gt;" class="s9" d="m444.9 49.1c44.1-17.1 98.4-3.2 129 32.9 17.8 21 28.5 48.9 51.6 64 19.7 12.9 63.1 24.4 73.6 89.5 2 4.9 2.3 9.6 1.1 14-1.1 4.4-4.1 8.7-8.4 10.2-4.3 1.5-10-0.6-11.2-5-2.5 10.1-2.8 18.2-5 26-2.3 7.7-6.8 15.1-13.8 19.1-6.9 4.1-16.5 4-22.5-1.4-7.8 10-14.4 21.4-24.8 28.6-10.5 7.1-26.1 8.5-35.1-0.3-14.8 15.4-33.5 25.6-53.4 29.1-19.9 3.5-40.9 0.2-58.9-9.1-8.6 12-25.2 18.5-41.5 17.4-16.2-1-31.9-9.5-41.6-22.6-4.1 10.3-12.8 16.2-21.5 16.4-8.7 0.2-17-4.5-22.6-11.1-5.7-6.7-9-15-11.1-23.4-8.9 12.8-20.7 7.6-26.4-1-5.7-8.7-6.4-19.7-5.4-30 5-45.6 17.1-27.2 36.5-91.3 4.6-15 3.5-29.2 3.3-44.9-0.1-15.6 1.8-32 10.5-45 12.4-18.5 34.2-28.6 54.9-20.4 1.1-15.8 21.4-33.5 42.7-41.7z"/>
				<g id="&lt;Group&gt;">
					<g id="&lt;Clip Group&gt;" clip-path="url(#cp1)">
						<g id="&lt;Group&gt;">
							<path id="&lt;Path&gt;" class="s10" d="m569.7 203c57.3 37.8 85.5 132.7 85.5 132.7 0 0-5.8 4-50 38.3-44.3 34.4-235.9-9.7-235.9-9.7-22.6-79.1 53-187.7 53-187.7 0 0 90.6-11 147.4 26.4z"/>
							<path id="&lt;Path&gt;" class="s11" d="m327.4 165.6c0.2-16.8 1.8-34.1 8.8-49.4 7-15.4 20.2-28.7 36.7-32.1 7.9-1.6 16.5-1 23.7-4.9 4.9-2.7 8.5-7.1 12.3-11.2 20.4-21.8 50.2-34.6 80.1-34.3 29.9 0.3 72.7 31 92.8 53.2-28.7-15.3-133.8-62.6-176.8 9.4-14.1-3.4-55.6 8.6-65.2 47.6-3.3 13.6 0.6 46.5-3.2 60-8.2-4.5-9.4-21.4-9.2-38.3z"/>
						</g>
					</g>
				</g>
				<g id="&lt;Group&gt;">
					<path id="&lt;Path&gt;" class="s11" d="m653.3 159.4c39.6 19.2 57.7 57.5 54.1 79.5-4.6 27.5-22.5 20.6-22.5 20.6 30.5-12.8-3.4-78.4-34.5-92.6-31-14.2-51.6-48.7-51.6-48.7 5.2 10.2 29.4 29 54.5 41.2z"/>
					<path id="&lt;Path&gt;" class="s11" d="m331.1 207.7c0 0-9.5 30.2-24.5 47.8-14 16.4-34.5 60 6.5 74.9 0 0-25.4-22-10.7-48.2 14.7-26.3 28.7-50.3 28.7-74.5z"/>
				</g>
			</g>
			<g id="&lt;Group&gt;">
				<g id="&lt;Group&gt;">
					<path id="&lt;Path&gt;" class="s12" d="m541.5 311.7l17.1 58c-63.9 68.7-106.1 8.6-106.1 8.6l14.2-53.8c21.5 5.9 74.8-12.8 74.8-12.8z"/>
					<g id="&lt;Group&gt;">
						<g id="&lt;Group&gt;">
							<g id="&lt;Group&gt;">
								<path id="&lt;Path&gt;" class="s13" d="m402.7 255c3.1 17.3 11 20.9 11 20.9-38.3 28.6-56.4-13.4-48.7-37.8 11.7-36.7 36.9-2 36.9-2 0 0-1.8 4.1 0.8 18.9z"/>
							</g>
							<path id="&lt;Path&gt;" class="s14" d="m393.5 275.8c5.3 0 9.7 4.3 9.7 9.7 0 5.3-4.4 9.7-9.7 9.7-5.4 0-9.8-4.4-9.8-9.7 0-5.4 4.4-9.7 9.8-9.7z"/>
						</g>
						<g id="&lt;Group&gt;">
							<g id="&lt;Group&gt;">
								<path id="&lt;Path&gt;" class="s13" d="m581.6 216.2c0 0 33.4-34.6 38.4 3.7 2.9 22.6-12 64.6-50.2 36 0 0 7.9-3.5 10.9-20.9 2.6-14.7 0.9-18.8 0.9-18.8z"/>
							</g>
							<path id="&lt;Path&gt;" class="s14" d="m598.7 255.8c5.4 0 9.7 4.4 9.7 9.7 0 5.4-4.3 9.8-9.7 9.8-5.3 0-9.7-4.4-9.7-9.8 0-5.3 4.4-9.7 9.7-9.7z"/>
						</g>
						<g id="&lt;Group&gt;">
							<path id="&lt;Path&gt;" class="s15" d="m413.7 115.5c18.9-10.1 41.5-11.4 62.6-7.3 21 4.1 40.6 13.3 59.5 23.5 17.9 9.6 35.8 20.7 47.1 37.6 8.3 12.4 6.3 9.9 8.2 24.7 4.3 32.8 2.1 77.8-17.1 104.6-19.2 26.9-50.3 47.4-94.3 42.2-86.9-10.2-98.1-115.5-91.2-167.3 4-29.9 6.3-47.9 25.2-58z"/>
							<path id="&lt;Path&gt;" class="s12" d="m401.5 172.6c2.5-12.8 2.4-26 4.4-39 0.8-5.4 2.6-11.5 7.5-13.8 3.6-1.7 8-0.9 11.5 0.9 3.5 1.9 6.4 4.7 9.4 7.3 16.4 13.7 37.7 20 58.8 23.4 21 3.3 42.5 4.2 63.4 8.6 10 2.2 20.1 5.3 28 11.8 7.8 6.6 10.4 17.1 8 27.1-2.7-6.1-5.7-10.5-11.9-13-6.2-2.5-13-3.3-19.6-3.8-24.2-2-46.9-5.9-70.9-9.6-24-3.6-51.9-10.9-67.4-29.6 5.5 10.9-2.4 23.7-6.3 33.4-5.4 13.4-18.4 23.5-31.4 29.8 4.1-9.3 14-20.7 16.5-33.5z"/>
						</g>
					</g>
					<g id="&lt;Group&gt;">
						<g id="&lt;Group&gt;">
							<path id="&lt;Path&gt;" class="s16" d="m556.7 231.8c-13.8-11.3-25.9-7.4-35.8 6.3 7.7-4.9 13.3-7.8 22.7-7.4 3.9 0.2 5.5 0.5 9.4 1.2 1.7 0 7.2 2.4 3.7-0.1z"/>
							<path id="&lt;Path&gt;" class="s16" d="m461.2 246.6c-3-1.5-4.9-1.5-7.7-1.8-4.7 0-5.5 0.2-10.7 1.8-4.5 1.3-7 2.6-11.2 5.7-1.4 0.9-2.7 1.9-3.9 3.1 0.4-1.3 0.9-2.5 1.6-3.7 2.2-3.9 5.4-7.7 9.7-9.3 7.2-3.2 17-2.2 22.2 4.2z"/>
							<path id="&lt;Path&gt;" class="s10" d="m437.4 180.6c-9.1-0.6-15.5-1-22 4.1-8.6 6.6-9.4 8.9-12.5 16.4-2-4.5 0.2-13.5 2.9-17.7 3.8-5.7 5.9-8.5 12.4-10.8 6.5-2.2 12.2-3.2 18.6-1 2.5 0.9 6.3 2.2 6.6 5.2 0.2 2.6-2 4.1-6 3.8z"/>
							<path id="&lt;Path&gt;" class="s10" d="m510.2 169.8c-0.3-3 3.1-5 5.3-6.4 5.9-3.5 11.6-3.7 18.4-3 6.8 0.8 9.5 3.2 14.4 7.9 3.6 3.5 7.7 11.8 6.6 16.7-4.6-6.7-5.9-8.7-15.6-13.4-7.5-3.6-13.7-1.8-22.4 0.7-3.9 1.1-6.3 0.1-6.7-2.5z"/>
							<path id="&lt;Path&gt;" class="s12" d="m488.6 250.8c0 0-3.7 11.7 4.5 21 0 0-13.7-5-4.5-21z"/>
							<path id="&lt;Path&gt;" class="s17" d="m477 289.5c0 0 26.4 11.5 41.8-8.1 0 0-8.8 24.4-41.8 8.1z"/>
						</g>
						<g id="&lt;Group&gt;">
							<path id="&lt;Path&gt;" class="s18" d="m439.4 210.4c20.8 0 37.5 16.6 37.5 37.1 0 20.5-16.7 37.1-37.5 37.1-20.7 0-37.5-16.6-37.5-37.1 0-20.5 16.8-37.1 37.5-37.1z"/>
							<path id="&lt;Path&gt;" class="s18" d="m541.7 194.5c20.7 0 37.5 16.7 37.5 37.1 0 20.5-16.8 37.1-37.5 37.1-20.7 0-37.5-16.6-37.5-37.1 0-20.4 16.8-37.1 37.5-37.1z"/>
							<path id="&lt;Path&gt;" class="s18" d="m466.9 221.2c10.7-9.8 27.6-12.4 40.7-6.1"/>
							<path id="&lt;Path&gt;" class="s18" d="m575.4 212.3q9.2-3.3 18.4-6.6"/>
							<path id="&lt;Path&gt;" class="s18" d="m406.3 231.9c-6.6-0.7-13.1-2.7-18.9-5.9"/>
						</g>
					</g>
				</g>
				<path id="&lt;Path&gt;" class="s9" d="m372.7 202.3c-2.6-7.8-3.2-16.2-3.4-24.5-0.2-12.2 0.6-24.6 4-36.3 3.4-11.8 9.6-22.9 18.9-30.9 14.2-12.1 34.1-15.5 52.7-14 18.6 1.5 36.5 7.4 54.5 12.1 18.7 4.8 38 8.4 54.5 18.2 27 16 50.2 48 38.6 78.8-1.3-12.2-9-21.7-19.6-27.8-10.7-6.2-23-8.6-35.1-10.4-35.6-5.1-73.3-5.5-104.5-23.5-7.2-4.2-14.4-9.8-16.5-17.9 4.5 18.7 0.3 39.1-10.6 55-4.5 6.6-10.2 12.5-14.1 19.5-4 6.9-3.6 16.1-3.6 23.2-8.9-6-13.1-13.6-15.8-21.5z"/>
			</g>
			<g id="&lt;Group&gt;">
				<g id="&lt;Group&gt;">
					<path id="&lt;Path&gt;" class="s19" d="m420.8 758.8h-74c0.9-20.1 1.9-41.6 3.1-63.2 1.2-23.8 2.6-47.8 4.2-70.5 0.5-7.8 1.1-15.5 1.7-23 0.6-8.1 1.3-16.3 1.8-24.4-1.7-4.2-3.4-8.6-5.1-13.2q0 0 0-0.1c-11.8-32.3-23.9-73.7-35.5-94.1q0.9-2.4 2.2-5c9.5-20 30.1-46.7 47.8-59.2 6.5-6.9 14.3-12.6 22.7-16.7 16.8-8.3 35.6-11.3 54.3-13q4-0.3 8-0.6 0.5 0.5 1 0.9c21.6 19.4 54.4 20.1 78 4.8 1.1-0.7 1.9-1.4 2.7-2.1 1.5-1.6 2.3-3.2 2.7-4.9 1.7-6.5-2.9-13 7.8-14.6 1.8-0.3 5.9-0.1 11.7 0.8q2 0.3 4.4 0.6c26.9 4.5 79.8 18.2 113.8 42.3 11.9 8.3 21.5 18 26.8 28.9 5.6 11.2-34.4-70.7-9.5 231.1 1.3 16.6 3.1 34.3 4.5 50.2 1.7 19.1 3 35.8 2.7 45h-108.9-19.7c-0.1-16.3-0.2-33-0.1-48.7q0.1-6.3 0.2-12.2c0-0.7 0-1.2 0-1.8q0-0.1 0-0.1c0-0.4 0-0.8 0-1.1q0-0.2 0-0.3 0-1 0-1.9-0.2 0.1-0.4 0.2h-0.1c-1.3 0.6-2.6 1.3-3.9 1.9q-0.1-0.1-0.1 0 0-0.1 0 0-0.6 0.3-1.3 0.5c-2.8 1.3-5.6 2.5-8.5 3.6-35.1 13.5-74.8 17.2-112.1 7.6q0.2 1.6 0.3 3.1 0 0 0 0c1.7 17.5 1.8 33.4 1.7 49.2z"/>
				</g>
				<g id="&lt;Group&gt;">
					<path id="&lt;Path&gt;" class="s20" d="m350.1 624.8c0.6-71.4 9.3-142.7 25.8-212.1-9.5 74.1-13.8 144.5-16.4 214.9 2-1.8-3.7-2.3-9.4-2.8z"/>
					<path id="&lt;Path&gt;" class="s20" d="m347.5 447.3q5.1 56.4 10.2 112.8c-12.5-36.6-15.9-76.2-10.2-112.8z"/>
				</g>
			</g>
			<g id="&lt;Group&gt;">
				<g id="&lt;Group&gt;">
					<path id="&lt;Path&gt;" class="s21" d="m542.3 345.2c3.8-2.7 6.6-6.3 10.4-3.6 1.7 1.3 4.1 11.5 4.8 13.5 2.9 8 3.7 5.6 3.2 10.7-13 97.8-13.2 207 4.6 303.5 3 16.2 6.1 28.9 5.4 39.6-0.6 8.6-106.6 12.2-122.3 5.1-5.9-2.7-5-7.7-5.5-12.8-0.8-7.1-1.4-15.2-1.1-26.1q2.5-92.5 4.9-184.9c2.3-7.5 1.7-16.5 1-25.6-3-32.5-14.3-57.8-4.1-87 1.9-5.4 4-4.1 7.6-6.3 1.9-1.1 1.6-2.8 3-8.3 1-4.2 1.8-12.2 6.2-12.5 28.5 12.3 60.2 10.5 81.9-5.3z"/>
				</g>
				<path id="&lt;Path&gt;" class="s22" d="m548.9 371.7c-0.7 0.5-3.2 1.9-4.6 2.7-17.8 10.2-39.6 12.5-59.5 7.8-8.7-2.2-17.6-4.7-25.3-9.6 6.2 2.6 13.8 3.4 19.1 4.1 10.5 1.3 21 1.5 31.6 0.7 10.9-0.6 17.5-0.9 26.2-2.9 4.1-0.9 8.3-1.7 12.5-2.8z"/>
			</g>
			<g id="&lt;Group&gt;">
				<g id="&lt;Group&gt;">
					<path id="&lt;Path&gt;" class="s15" d="m270.4 357.3c7.5 5.7 16.1 9.8 23.2 16.1 16.4 14.5 21.9 40 12.8 60-2 10.1 1.3 20.1 3.2 30 2 9.9 2.2 21.2-4.2 29-5.2 6.3-13.6 8.9-21.6 10.8-8.6 2.1-18.9 3.3-25.3-2.9-4.9-4.9-5.4-12.6-5.6-19.5q-0.3-10.1-0.6-20.2c-16.6-3.3-32.4-13.3-40.2-28.4-7.7-15.2-5.8-35.5 6.6-47.1 7.8-7.3 19.6-11.8 22.4-22.1 1.2-4.1 0.5-8.5 0.1-12.8-0.4-4.2-0.6-8.7 1.3-12.6 1.8-3.9 6.4-6.7 10.5-5.3 7.6 7.1 9.9 19.4 17.4 25z"/>
					<g id="&lt;Group&gt;">
						<path id="&lt;Path&gt;" class="s23" d="m248.3 413.2l-168.8-218.7 29.7-23.3 168.7 218.7z"/>
						<g id="&lt;Group&gt;" style="opacity: .7">
							<g id="&lt;Clip Group&gt;" clip-path="url(#cp2)">
								<path id="&lt;Path&gt;" class="s24" d="m80.2 194.6c0 0 116.5 164.1 136 154.9 19.6-9.2-107.3-178.2-107.3-178.2 0 0 187.3 214.1 182.4 233.8-4.9 19.8-48.3 29.5-48.3 29.5 0 0-170.7-213.3-162.8-240z"/>
							</g>
						</g>
						<g id="&lt;Group&gt;">
							<path id="&lt;Path&gt;" class="s25" d="m101.3 192.1l11.6-8.7"/>
							<path id="&lt;Path&gt;" class="s25" d="m129.1 232l11.6-8.7"/>
							<path id="&lt;Path&gt;" class="s25" d="m111.9 195.2l5.9-4.7"/>
							<path id="&lt;Path&gt;" class="s25" d="m117.6 203.2l5.9-4.8"/>
							<path id="&lt;Path&gt;" class="s25" d="m122.9 210.7l5.8-4.8"/>
							<path id="&lt;Path&gt;" class="s25" d="m128.5 219l5.8-4.7"/>
						</g>
						<g id="&lt;Group&gt;">
							<path id="&lt;Path&gt;" class="s25" d="m159.1 270.9l11.3-9.1"/>
							<path id="&lt;Path&gt;" class="s25" d="m140.4 235l5.7-5"/>
							<path id="&lt;Path&gt;" class="s25" d="m146.5 242.7l5.6-5"/>
							<path id="&lt;Path&gt;" class="s25" d="m152 249.9l5.7-4.9"/>
							<path id="&lt;Path&gt;" class="s25" d="m157.9 258l5.7-4.9"/>
						</g>
						<g id="&lt;Group&gt;">
							<path id="&lt;Path&gt;" class="s25" d="m192.9 312.6l11.3-9.1"/>
							<path id="&lt;Path&gt;" class="s25" d="m174.2 276.7l5.7-5"/>
							<path id="&lt;Path&gt;" class="s25" d="m180.2 284.4l5.7-5"/>
							<path id="&lt;Path&gt;" class="s25" d="m185.7 291.7l5.7-5"/>
							<path id="&lt;Path&gt;" class="s25" d="m191.7 299.8l5.7-5"/>
						</g>
						<g id="&lt;Group&gt;">
							<path id="&lt;Path&gt;" class="s25" d="m223.5 354.2l11.3-9.1"/>
							<path id="&lt;Path&gt;" class="s25" d="m204.8 318.3l5.7-4.9"/>
							<path id="&lt;Path&gt;" class="s25" d="m210.9 326l5.7-4.9"/>
							<path id="&lt;Path&gt;" class="s25" d="m216.4 333.3l5.7-5"/>
							<path id="&lt;Path&gt;" class="s25" d="m222.4 341.4l5.6-5"/>
						</g>
						<g id="&lt;Group&gt;">
							<path id="&lt;Path&gt;" class="s25" d="m256.8 394.4l11.3-9.1"/>
							<path id="&lt;Path&gt;" class="s25" d="m238.1 358.4l5.7-4.9"/>
							<path id="&lt;Path&gt;" class="s25" d="m244.1 366.1l5.7-4.9"/>
							<path id="&lt;Path&gt;" class="s25" d="m249.7 373.4l5.7-5"/>
							<path id="&lt;Path&gt;" class="s25" d="m255.6 381.5l5.7-4.9"/>
						</g>
					</g>
					<path id="&lt;Path&gt;" class="s26" d="m162.5 353.5c17.1-4.6 34.6-7.3 52.2-7.9 5.1-0.2 10.6 0 14.4 3.3 2.9 2.5 4.2 6.7 3.3 10.4-0.9 3.7-4 6.8-8.1 8.3 6.1-2 12.9-1.5 18.5 1.4 1.6 0.8 3.1 1.8 4.2 3.2 1.6 1.9 2.4 4.5 2.1 7-0.5 4.5-4.1 8.4-8.8 8.8 4-1.6 8.8-0.4 11.6 2.8 2.8 3.2 3.3 8.2 1.2 11.9-1.8 3.2-5.1 5.2-8.3 6.9-11.3 6.2-23.4 11-35.6 14.8 5.9 2.9 12.6 4 19.1 3.1 3.4-0.5 6.9-1.5 10.4-1.2 3.5 0.2 7.2 2.3 7.9 5.7 0.9 4.3-3 7.9-6.6 10.3-8.6 5.8-18.1 10.2-28 13.2-7.1 2.2-15.8 3.3-21.3-1.7-5.4-4.9-5.3-13.8-1.6-19.9 3.8-6.2 10.4-10.1 16.9-13.4-2.8 1.2-6.1 0.4-8.6-1.5-3-2.2-4.8-6-4.5-9.7 0.3-3.7 2.7-7.2 7.1-10.3-3.7 1.9-7.6 3.6-11.7 3.8-4.1 0.2-8.6-1.3-10.9-4.7-2.4-3.6-2.1-8.4-0.2-12.2 1.9-3.8 5.2-6.7 9.6-10.5-4.6 1.4-9.7 2-14.4 0.7-4.7-1.2-9-4.4-10.9-8.9-1.9-4.5-0.9-10.3 1-13.7z"/>
				</g>
				<g id="&lt;Group&gt;">
					<path id="&lt;Path&gt;" class="s27" d="m270.5 492.4c8.8-1 17.9-2 25.8-6.1 8-4 13.7-11.5 13.9-20.4 4.9-1.9 12-0.8 16 2.5 4 3.3 6.5 8.2 8.7 12.9 22.4 48.6 34.4 102 34.8 155.5 0.1 19.7-2.1 41.4-16 55.4-15.7 15.7-42.2 16.3-61.8 6-19.7-10.3-33.4-29.2-43.5-48.9-16.3-31.9-25-67.7-25.1-103.6 0-5.3 0.1-10.7 2.1-15.6 1.9-5 5.9-9.4 11.1-10.4-1.6-8.2-3.2-17-0.5-25 2.6-8 9-16.4 17.1-14.2-2.9 11.4 12.7 12.4 17.4 11.9z"/>
					<path id="&lt;Path&gt;" class="s20" d="m329.5 506.4q-1.8 1.2-3.5 2.4c-15.5 10.8-34.4 16.4-53.3 16-9.6-0.1-18.9-2.6-28.2-4.6 9.6 0.1 22-0.2 29-1.5 15.3-2.6 30.6-5.8 45.7-9.4q5.2-1.4 10.3-2.9z"/>
				</g>
			</g>
			<g id="&lt;Group&gt;">
				<g id="&lt;Group&gt;">
					<path id="&lt;Path&gt;" class="s28" d="m590.7 473.1l14.8 17.7-135.1 20.6c0 0-27.5 3-31.8-6.4-4.4-9.4-10-16.5 4.3-22.3 14.4-5.8 147.8-9.6 147.8-9.6z"/>
					<path id="&lt;Path&gt;" class="s23" d="m594.9 486.7c8-0.9 15.1 5.1 15.4 13.2l6.4 175.9c0.4 8.6-6.1 15.9-14.7 16.5l-140.3 11.2-12.3-199.9z"/>
					<path id="&lt;Path&gt;" class="s29" d="m621.1 691.4c-31.2 8.3-159.7 11.8-159.7 11.8 75.9-27.5 149.5-183.7 149.5-183.7z"/>
					<path id="&lt;Path&gt;" class="s30" d="m482 555.5l-1.2-12.7c-0.3-3.4 2.2-6.4 5.6-6.7l85.5-8.3c3.4-0.3 6.4 2.2 6.7 5.6l1.2 12.7c0.4 3.4-2.1 6.4-5.5 6.7l-85.5 8.2c-3.4 0.4-6.5-2.1-6.8-5.5z"/>
					<path id="&lt;Path&gt;" class="s31" d="m438.3 489.5c-1.6 1.2-3.4 12.8 12.7 14l10.7 199.9c0 0-18.4 5.3-21.3-8.2l-11.5-195.5c0 0-4-14.5 18.7-20.1 32.3-7.9 148.3-10.8 148.3-10.8 0 0 6.1 3 0.7 6.3 0 0-146.4 5.5-158.3 14.4z"/>
				</g>
				<g id="&lt;Group&gt;">
					<g id="&lt;Group&gt;">
						<path id="&lt;Path&gt;" class="s15" d="m558.4 673.7c-12.8-8-31.6-9.5-43.3-16.8-20.9 8.4-44.6 9.7-66.3 3.6-3.6-1-7.6-2.5-9.4-5.8-1.8-3.3 0.3-8.7 3.8-9-3.7-1.9-7.7-3.1-11.2-5.2-3.6-2.1-6.8-5.3-7.6-9.4-0.7-4 2-8.8 7.3-8.7-6.2-1.6-11.9-5.4-15.8-10.6-1.4-1.9-2.7-4.3-2.2-6.7 0.4-2 2-3.7 3.9-4.7 1.8-0.9 3.9-1.3 6.1-2.3-5-1.7-9.2-5.7-11.1-10.7-0.9-2.3-1.2-5.1-0.1-7.3 1.7-3.4 5.9-4.4 9.6-4.7 7.8-0.8 15.8-0.2 23.3 1.3q6.3 1.4 12.5 2.8c-7.8-4-14.3-10.3-18.5-18-1-2-2-4.5-0.9-6.5 1.7-3.1 6.3-2.4 9.7-1.3q15.8 5.4 31.5 10.8c9.7 3.3 19.6 6.7 27.3 13.4 7 6.1 11.6 14.5 18.1 21.1 10.8 11.1 25.9 16.6 40.4 21.7-4.7 15.9-2.2 36.5-7.1 53z"/>
						<path id="&lt;Path&gt;" class="s12" d="m519.9 659.1c0 0 31.1-23.6 31.1-43.8l6.8 1.5-7.2 59.7z"/>
					</g>
					<g id="&lt;Group&gt;">
						<path id="&lt;Path&gt;" class="s27" d="m741.7 653.9c-1.6 16.6-5.3 34.1-17.2 45.8-10.9 10.7-26.8 14.5-41.9 16.5-27.7 3.7-56.1 3-83.6-2-12.2-2.2-26.5-7.5-28.8-19.6-5.3 0.5-15.2 0.6-20.8-6-4.3-5.1-4.2-12.6-3.7-19.3 1.2-15.9 3.6-31.7 7.1-47.3 1-4.4 2.2-9 5.5-12.1 3.2-2.9 7.8-3.8 12-3.3 4.3 0.4 8.3 2 12.3 3.6 1.1-8.8 23.2-8.3 33.8-8.3-3.8-24.6-5.1-60.1-9.1-86.3-10-65.7 8.7-120.1 62.2-113 64.6 8.6 79.1 183.9 72.2 251.3z"/>
						<path id="&lt;Path&gt;" class="s20" d="m580.3 615.2c0.3 21.8-2.6 43.5-8.7 64.5-0.5-8.1-0.1-20.9 1.5-30.4 1.9-11.5 5.1-22.7 7.2-34.1z"/>
					</g>
				</g>
			</g>
		</g>
	</g>
	<g id="TEXT">
		<g id="&lt;Group&gt;">
		</g>
	</g>
</svg>